<svg id="Layer_12" data-name="Layer 12" xmlns="http://www.w3.org/2000/svg" width="50" height="50" viewBox="0 0 50 50"><defs><style>.cls-1{fill:#fff;}</style></defs><title>copy</title><path class="cls-1" d="M38.57,10.58H34.94V6.94A3.72,3.72,0,0,0,31.2,3.21H11.69A3.72,3.72,0,0,0,8,6.94v28.8a3.72,3.72,0,0,0,3.73,3.74h3.64v3.63a3.72,3.72,0,0,0,3.73,3.74H38.57a3.72,3.72,0,0,0,3.74-3.74V14.31A3.75,3.75,0,0,0,38.57,10.58ZM11.69,37.51a1.84,1.84,0,0,1-1.81-1.82V6.94a1.84,1.84,0,0,1,1.81-1.81H31.2A1.84,1.84,0,0,1,33,6.94v3.64h-14a3.72,3.72,0,0,0-3.73,3.73V37.56H11.69Zm28.7,5.55a1.84,1.84,0,0,1-1.82,1.82H19.06a1.84,1.84,0,0,1-1.81-1.82V14.31a1.84,1.84,0,0,1,1.81-1.81H38.57a1.84,1.84,0,0,1,1.82,1.81Z"/></svg>