<svg xmlns="http://www.w3.org/2000/svg" width="50" height="50" viewBox="0 0 50 50"><defs><style>.cls-1{fill:#606060;}.cls-2{fill:#fff;}</style></defs><title>edit</title><g id="Layer_2" data-name="Layer 2"><rect class="cls-1" x="0.13" y="-0.26" width="50" height="50.26"/></g><g id="Layer_12" data-name="Layer 12"><path class="cls-2" d="M42.74,30.23a1,1,0,0,0-1,1v8.68a2.93,2.93,0,0,1-2.93,2.93H11.39a2.93,2.93,0,0,1-2.93-2.93V14.41a2.93,2.93,0,0,1,2.93-2.93h8.68a1,1,0,0,0,0-2H11.39A4.9,4.9,0,0,0,6.5,14.41V39.89a4.9,4.9,0,0,0,4.89,4.89H38.83a4.9,4.9,0,0,0,4.89-4.89V31.21A1,1,0,0,0,42.74,30.23Z"/><path class="cls-2" d="M43.33,7a4.39,4.39,0,0,0-6.22,0L19.66,24.45a1,1,0,0,0-.25.43l-2.29,8.28a1,1,0,0,0,1.2,1.2l8.28-2.29a.94.94,0,0,0,.43-.25L44.48,14.38a4.42,4.42,0,0,0,0-6.23ZM21.79,25.08,36.07,10.81l4.6,4.6L26.4,29.69Zm-.92,1.85,3.68,3.68L19.46,32ZM43.09,13l-1,1-4.61-4.6,1-1a2.44,2.44,0,0,1,3.46,0l1.14,1.15A2.43,2.43,0,0,1,43.09,13Z"/></g></svg>