<svg id="Layer_1" data-name="Layer 1" xmlns="http://www.w3.org/2000/svg" width="50" height="50" viewBox="0 0 50 50"><defs><style>.cls-1{fill:#64f44c;}</style></defs><title>green arrow</title><path class="cls-1" d="M25.1,48.49a1.63,1.63,0,0,0,.79-.2c.05,0,.09-.06.15-.08a1.81,1.81,0,0,0,.6-.74,1,1,0,0,1-.14.28l10.84-14a1.68,1.68,0,0,0-2.66-2L26.77,41.91V3.18a1.68,1.68,0,1,0-3.35,0V41.91L15.51,31.67a1.68,1.68,0,0,0-2.66,2L23.76,47.85l0,0-.06-.08c.06.07.11.14.18.21l.12.11.09.06a1.35,1.35,0,0,0,.66.29l.15,0Z"/><path class="cls-1" d="M26,48.21a1.47,1.47,0,0,0,.39-.36l.07-.1a1,1,0,0,0,.14-.28A1.81,1.81,0,0,1,26,48.21Z"/><path class="cls-1" d="M24.41,48.35l.09,0Z"/><path class="cls-1" d="M24.16,48.2a2.07,2.07,0,0,0,.25.15A1.28,1.28,0,0,1,24.16,48.2Z"/><path class="cls-1" d="M25.26,48.49a1.23,1.23,0,0,0,.39-.08l.18-.08a.43.43,0,0,0,.16-.09l.05,0c-.06,0-.1.06-.15.08a2,2,0,0,1-.37.15h0a1.36,1.36,0,0,1-.36.05h-.2l-.15,0a1,1,0,0,1-.28-.08A1.52,1.52,0,0,0,25.26,48.49Z"/><path class="cls-1" d="M24.12,48.17l0,0L24,48.06,23.91,48c-.07-.07-.12-.14-.18-.21l.06.08a.47.47,0,0,0,.13.15l.11.09s0,0,0,0Z"/><path class="cls-1" d="M23.91,48c-.07-.07-.12-.14-.18-.21l.06.08A1.42,1.42,0,0,0,23.91,48Z"/><path class="cls-1" d="M24,48.11,23.91,48v0Z"/><path class="cls-1" d="M24.12,48.17,24,48.11s0,0,0,0Z"/><path class="cls-1" d="M26,48.21a1.47,1.47,0,0,0,.39-.36l.07-.1a1,1,0,0,0,.14-.28A1.81,1.81,0,0,1,26,48.21Z"/><path class="cls-1" d="M26,48.21c-.06,0-.1.06-.15.08a.19.19,0,0,0,.1,0Z"/><path class="cls-1" d="M25.1,48.49h0Z"/><path class="cls-1" d="M25.13,48.49a1.49,1.49,0,0,0,.52-.08l.18-.08a.08.08,0,0,0,.06,0A1.75,1.75,0,0,1,25.13,48.49Z"/></svg>