<svg xmlns="http://www.w3.org/2000/svg" width="50" height="50" viewBox="0 0 50 50"><defs><style>.cls-1{fill:#fff;}</style></defs><title>hard wallet</title><g id="Layer_11" data-name="Layer 11"><path class="cls-1" d="M45.68,21.16h-.87V18.33A4.38,4.38,0,0,0,40.43,14V10.7a4.37,4.37,0,0,0-4.34-4.34H12.86A4.7,4.7,0,0,0,8.18,11v9.14a6.72,6.72,0,0,1,1.73-.34V14.67a4.42,4.42,0,0,0,1.7.86h.08a3.19,3.19,0,0,0,1.17.19H40.43A2.61,2.61,0,0,1,43,18.33v2.83H38.24a5.67,5.67,0,1,0,0,11.33H43v3.06a2.61,2.61,0,0,1-2.6,2.61H25.17a9.3,9.3,0,0,1-.72,1.73h16a4.34,4.34,0,0,0,4.38-4.34V32.49h.87a2.17,2.17,0,0,0,2.15-2.15v-7A2.18,2.18,0,0,0,45.68,21.16Zm-7-7.18H12.86a2.95,2.95,0,1,1,0-5.89H36.09a2.61,2.61,0,0,1,2.6,2.61Zm7.4,16.36a.41.41,0,0,1-.41.41H38.24a3.93,3.93,0,0,1,0-7.85h7.44a.44.44,0,0,1,.41.45Z"/><path class="cls-1" d="M39.15,25.31a1.53,1.53,0,1,0,1.51,1.52A1.53,1.53,0,0,0,39.15,25.31Zm0,1.74a.21.21,0,0,1-.23-.22c0-.12.07-.19.23-.19a.17.17,0,0,1,.18.19A.2.2,0,0,1,39.15,27.05Z"/><path class="cls-1" d="M20,33.07h-.15V31c0-5.22-3-8.59-7.62-8.59S4.59,25.74,4.59,31v2.11H4.45c-1.51,0-2.1.64-2.1,2.17v9.84c0,1.56.61,2.17,2.17,2.17H19.91c1.56,0,2.17-.61,2.17-2.17V35.24C22.08,33.71,21.49,33.09,20,33.07ZM14.09,43.18c.12.51,0,.66-.53.66h-2.7c-.52,0-.64-.15-.52-.66l.79-3.46a2.24,2.24,0,1,1,2.17,0ZM7.64,33.07V31c0-3.58,1.63-5.55,4.57-5.55s4.58,2,4.58,5.55v2.11Z"/></g></svg>