<svg id="Layer_10" data-name="Layer 10" xmlns="http://www.w3.org/2000/svg" width="50" height="50" viewBox="0 0 50 50"><defs><style>.cls-1{fill:#fff;}</style></defs><title>logout</title><path class="cls-1" d="M31.73,29.62a1.45,1.45,0,0,0-1.45,1.45v9a1.45,1.45,0,0,1-1.45,1.45H8.55A1.45,1.45,0,0,1,7.11,40V9.71A1.45,1.45,0,0,1,8.55,8.26H28.83a1.45,1.45,0,0,1,1.45,1.45v9a1.45,1.45,0,1,0,2.9,0v-9a4.35,4.35,0,0,0-4.35-4.35H8.55A4.35,4.35,0,0,0,4.21,9.71V40a4.35,4.35,0,0,0,4.34,4.35H28.83A4.35,4.35,0,0,0,33.18,40v-9A1.45,1.45,0,0,0,31.73,29.62Zm15.55-4.76a1.24,1.24,0,0,0,0-.27c0-.05,0-.1,0-.15s0-.08,0-.12l-.09-.17a.59.59,0,0,0,0-.08,1.45,1.45,0,0,0-.19-.23l-8.33-8.33a1.45,1.45,0,0,0-2,2l5.85,5.86h-26a1.45,1.45,0,0,0,0,2.9H42.33l-5.85,5.85a1.44,1.44,0,0,0,0,2,1.42,1.42,0,0,0,2,0l8.33-8.33,0,0a1.49,1.49,0,0,0,.15-.2.75.75,0,0,0,.07-.12s0-.08.07-.13l0-.15,0-.12a1.33,1.33,0,0,0,0-.28Z"/></svg>