<svg xmlns="http://www.w3.org/2000/svg" width="50" height="50" viewBox="0 0 50 50"><defs><style>.cls-1{fill:#606060;}.cls-2{fill:#fff;}</style></defs><title>paste</title><g id="Layer_2" data-name="Layer 2"><rect class="cls-1" x="0.13" y="-0.26" width="50" height="50.26"/></g><g id="Layer_12" data-name="Layer 12"><path class="cls-2" d="M38.57,10.58H34.94V6.94A3.72,3.72,0,0,0,31.2,3.21H11.69A3.72,3.72,0,0,0,8,6.94v28.8a3.72,3.72,0,0,0,3.73,3.74h3.64v3.63a3.72,3.72,0,0,0,3.73,3.74H38.57a3.72,3.72,0,0,0,3.74-3.74V14.31A3.75,3.75,0,0,0,38.57,10.58ZM11.69,37.51a1.84,1.84,0,0,1-1.81-1.82V6.94a1.84,1.84,0,0,1,1.81-1.81H31.2A1.84,1.84,0,0,1,33,6.94v3.64h-14a3.72,3.72,0,0,0-3.73,3.73V37.56H11.69Zm28.7,5.55a1.84,1.84,0,0,1-1.82,1.82H19.06a1.84,1.84,0,0,1-1.81-1.82V14.31a1.84,1.84,0,0,1,1.81-1.81H38.57a1.84,1.84,0,0,1,1.82,1.81Z"/><path class="cls-2" d="M35,20.49H22.69a.94.94,0,0,0,0,1.87H35a.94.94,0,1,0,0-1.87Z"/><path class="cls-2" d="M35,26.25H22.69a.94.94,0,0,0,0,1.87H35a.94.94,0,0,0,.94-.94A.9.9,0,0,0,35,26.25Z"/><path class="cls-2" d="M31.67,32.22h-9a.93.93,0,1,0,0,1.86h9a.93.93,0,1,0,0-1.86Z"/></g></svg>