<svg id="Layer_6" data-name="Layer 6" xmlns="http://www.w3.org/2000/svg" width="50" height="50" viewBox="0 0 50 50"><defs><style>.cls-1{fill:#ff5a5a;}</style></defs><title>receive</title><rect class="cls-1" x="7.15" y="7.42" width="10.41" height="10.41"/><rect class="cls-1" x="7.15" y="32.71" width="10.41" height="10.41"/><rect class="cls-1" x="32.44" y="7.42" width="10.41" height="10.41"/><polygon class="cls-1" points="39.88 20.81 39.88 29.74 32.44 29.74 32.44 32.71 42.85 32.71 42.85 20.81 39.88 20.81"/><polygon class="cls-1" points="32.44 35.69 32.44 43.12 35.41 43.12 35.41 38.66 39.88 38.66 39.88 43.12 42.85 43.12 42.85 35.69 32.44 35.69"/><polygon class="cls-1" points="20.54 7.42 20.54 10.4 26.49 10.4 26.49 17.84 29.46 17.84 29.46 7.42 20.54 7.42"/><polygon class="cls-1" points="26.49 20.81 26.49 26.76 20.54 26.76 20.54 35.69 26.49 35.69 26.49 43.12 29.46 43.12 29.46 32.71 23.51 32.71 23.51 29.74 29.46 29.74 29.46 23.79 32.44 23.79 32.44 26.76 35.41 26.76 35.41 20.81 26.49 20.81"/><rect class="cls-1" x="20.54" y="38.66" width="2.98" height="4.46"/><rect class="cls-1" x="13.1" y="26.76" width="4.46" height="2.98"/><polygon class="cls-1" points="20.54 13.37 20.54 20.81 7.15 20.81 7.15 29.74 10.13 29.74 10.13 23.79 23.51 23.79 23.51 13.37 20.54 13.37"/></svg>