<svg id="Layer_1" data-name="Layer 1" xmlns="http://www.w3.org/2000/svg" width="50" height="50" viewBox="0 0 50 50"><defs><style>.cls-1{fill:#ef3333;}</style></defs><title>red arrow</title><path class="cls-1" d="M25.1,1.51a1.63,1.63,0,0,1,.79.2c.05,0,.09.06.15.08a1.81,1.81,0,0,1,.6.74,1,1,0,0,0-.14-.28l10.84,14a1.68,1.68,0,0,1-2.66,2L26.77,8.09V46.82a1.68,1.68,0,1,1-3.35,0V8.09L15.51,18.33a1.68,1.68,0,0,1-2.66-2L23.76,2.15l0,0-.06.08c.06-.07.11-.14.18-.21L24,1.89a.47.47,0,0,1,.09-.06,1.35,1.35,0,0,1,.66-.29.39.39,0,0,1,.15,0Z"/><path class="cls-1" d="M26,1.79a1.47,1.47,0,0,1,.39.36l.07.1a1,1,0,0,1,.14.28A1.81,1.81,0,0,0,26,1.79Z"/><path class="cls-1" d="M24.41,1.65l.09,0Z"/><path class="cls-1" d="M24.16,1.8a2.07,2.07,0,0,1,.25-.15A1.28,1.28,0,0,0,24.16,1.8Z"/><path class="cls-1" d="M25.26,1.51a1.59,1.59,0,0,1,.39.08l.18.08a.43.43,0,0,1,.16.09l.05,0c-.06,0-.1-.06-.15-.08a2,2,0,0,0-.37-.15h0a1.36,1.36,0,0,0-.36-.05h-.2a.39.39,0,0,0-.15,0,1.47,1.47,0,0,0-.28.08A1.52,1.52,0,0,1,25.26,1.51Z"/><path class="cls-1" d="M24.12,1.83l0,0L24,1.94,23.91,2c-.07.07-.12.14-.18.21l.06-.08A.35.35,0,0,1,23.92,2a.52.52,0,0,1,.11-.1s0,0,0,0Z"/><path class="cls-1" d="M23.91,2c-.07.07-.12.14-.18.21l.06-.08A1.42,1.42,0,0,1,23.91,2Z"/><path class="cls-1" d="M24,1.89,23.91,2s0,0,0,0A.52.52,0,0,1,24,1.89Z"/><path class="cls-1" d="M24.12,1.83a.47.47,0,0,0-.09.06s0,0,0,0Z"/><path class="cls-1" d="M26,1.79a1.47,1.47,0,0,1,.39.36l.07.1a1,1,0,0,1,.14.28A1.81,1.81,0,0,0,26,1.79Z"/><path class="cls-1" d="M26,1.79c-.06,0-.1-.06-.15-.08a.19.19,0,0,1,.1.05Z"/><path class="cls-1" d="M25.1,1.51h0Z"/><path class="cls-1" d="M25.13,1.51a1.49,1.49,0,0,1,.52.08l.18.08a.08.08,0,0,1,.06,0A1.75,1.75,0,0,0,25.13,1.51Z"/></svg>