<svg id="Layer_7" data-name="Layer 7" xmlns="http://www.w3.org/2000/svg" width="50" height="50" viewBox="0 0 50 50"><defs><style>.cls-1{fill:#ff9852;}</style></defs><title>send</title><path class="cls-1" d="M8.47,25.22c-1.33.7-1.27,1.72.12,2.28l4.15,1.63a5.28,5.28,0,0,0,4.7-.67l18-14.18c1.18-.93,1.31-.79.28.31L21.48,29.8a1.73,1.73,0,0,0,.68,3l.49.18c1.4.55,3.69,1.46,5.08,2l4.59,1.87a2.39,2.39,0,0,0,3.29-1.56l7-25.72c.4-1.46-.37-2.07-1.7-1.37Z"/><path class="cls-1" d="M19.84,42.06c-.08.25,2.83-4.22,2.83-4.22a2.18,2.18,0,0,0-1-3.33l-3.17-1.3c-1.4-.57-2.06.1-1.49,1.49C17,34.7,19.92,41.81,19.84,42.06Z"/></svg>