<svg id="Layer_5" data-name="Layer 5" xmlns="http://www.w3.org/2000/svg" width="50" height="50" viewBox="0 0 50 50"><defs><style>.cls-1{fill:#fff;}</style></defs><title>setting</title><path class="cls-1" d="M28.59,47.05l.08-.79,1-5.78A21.61,21.61,0,0,0,33,39.17l4.81,3.41.62.44.52-.52,3.67-3.77.53-.52-.44-.61-3.32-4.81a15.89,15.89,0,0,0,1.4-3.33l5.77-1,.7-.09V21.59l-.7-.18-5.77-1.05A16,16,0,0,0,39.35,17l3.41-4.81.44-.62-.53-.52L38.91,7.33l-.52-.53-.62.44L33,10.65a16,16,0,0,0-3.32-1.4l-1-5.77-.08-.79H21.68l-.18.7L20.45,9.17a22.58,22.58,0,0,0-3.32,1.39l-4.9-3.41-.62-.43-.52.52L7.33,11l-.53.53.44.61L10.74,17a19.24,19.24,0,0,0-1.4,3.33l-5.86,1-.7.17v6.91l.79.09,5.77,1a15.89,15.89,0,0,0,1.4,3.33l-3.41,4.9-.44.61.7.43,3.76,3.77.53.52.61-.44,4.72-3.41a15.89,15.89,0,0,0,3.33,1.4l1.05,5.78.17.7h6.83ZM27,45.3H23.16l-1-5.6-.09-.53L21.5,39a16.13,16.13,0,0,1-3.94-1.66L17,37.07l-.44.35-4.55,3.33L9.34,38l3.24-4.63.35-.44-.27-.52A15.75,15.75,0,0,1,11,28.5L10.83,28l-.53-.08L4.7,27V23.16l5.6-1,.61-.09.09-.7a13.1,13.1,0,0,1,1.66-3.93l.27-.53-.35-.44L9.25,11.88,12,9.17,16.6,12.4l.44.35.52-.26a15.75,15.75,0,0,1,3.94-1.66l.53-.18.08-.52,1-5.6h3.84L27.8,10l.09.61.7.18a13.35,13.35,0,0,1,4,1.66l.44.26.52-.35,4.64-3.23,2.62,2.71L37.6,16.43l-.35.43.26.53a12.56,12.56,0,0,1,1.66,4l.18.53L40,22l5.51,1v3.85L40,27.71l-.61.09-.18.52a16.38,16.38,0,0,1-1.66,4l-.26.52.35.44L40.83,38l-2.71,2.72-4.55-3.24-.43-.35-.53.26a15,15,0,0,1-4,1.66l-.62.18-.08.61ZM25.09,32.87a8,8,0,1,0-8-8A8,8,0,0,0,25.09,32.87Zm0-1.75a6.21,6.21,0,1,1,6.21-6.21A6.24,6.24,0,0,1,25.09,31.12Z"/></svg>