<svg id="Layer_8" data-name="Layer 8" xmlns="http://www.w3.org/2000/svg" width="50" height="50" viewBox="0 0 50 50"><defs><style>.cls-1{fill:#5dc990;}</style></defs><title>staking</title><path class="cls-1" d="M38.43,46.14a.58.58,0,0,0-.18-.65,20.33,20.33,0,0,0-12.33-4.77V35.38h4.75a9,9,0,0,0,8.94-8.93.59.59,0,0,0-.59-.59H34a9,9,0,0,0-8.11,5.21V23.38h3.62a7,7,0,0,0,7-7,.59.59,0,0,0-.59-.59H32.13a7,7,0,0,0-6.21,3.74V9.39A3.41,3.41,0,0,0,26.85,5L26,3.49a.61.61,0,0,0-.36-.27.56.56,0,0,0-.44.06A3.4,3.4,0,0,0,24,7.92l.79,1.37v4a4.82,4.82,0,0,0-4-2.14H18.21a.59.59,0,0,0-.58.59,4.83,4.83,0,0,0,4.82,4.83h2.3V25.3a9,9,0,0,0-7.88-4.73H11.19a.59.59,0,0,0-.58.59,8.94,8.94,0,0,0,8.93,8.93h5.21V40.73a22.23,22.23,0,0,0-12.49,4.78.59.59,0,0,0,.39,1H37.88a.58.58,0,0,0,.55-.4"/></svg>