<svg xmlns="http://www.w3.org/2000/svg" width="50" height="50" viewBox="0 0 50 50"><defs><style>.cls-1{fill:#606060;}.cls-2{fill:#64f4f4;}</style></defs><title>switch arrow</title><g id="Layer_2" data-name="Layer 2"><rect class="cls-1" x="0.13" y="-0.26" width="50" height="50.26"/></g><g id="Layer_12" data-name="Layer 12"><path class="cls-2" d="M21.55,46.85H19.27a.44.44,0,0,1-.46-.41V14.5a.46.46,0,0,0-.84-.2l-3.72,5.89a.47.47,0,0,1-.62.15l-2-1a.41.41,0,0,1-.17-.57L21.16,3.42a.46.46,0,0,1,.84.2V46.44A.43.43,0,0,1,21.55,46.85Z"/><path class="cls-2" d="M28,46.17V3.89a.56.56,0,0,1,.58-.53h2a.56.56,0,0,1,.58.53v31.4a.59.59,0,0,0,1.08.26l3.42-5.43a.62.62,0,0,1,.79-.2l1.77.93a.5.5,0,0,1,.21.71L29.12,46.43A.59.59,0,0,1,28,46.17Z"/></g></svg>