<svg id="Layer_3" data-name="Layer 3" xmlns="http://www.w3.org/2000/svg" width="50" height="50" viewBox="0 0 50 50"><defs><style>.cls-1{fill:#fff;}</style></defs><title>wallet</title><path class="cls-1" d="M7.3,44H39.6a5,5,0,0,0,5-5V35.42h1a2.52,2.52,0,0,0,2.52-2.53V24.82a2.52,2.52,0,0,0-2.52-2.53h-1V19a5,5,0,0,0-5-5V10.18a5,5,0,0,0-5.05-5H7.68a5.42,5.42,0,0,0-5.42,5.42v.38h0V39A5,5,0,0,0,7.3,44ZM46.16,24.82v8.07a.51.51,0,0,1-.5.51H37.08a4.55,4.55,0,0,1,0-9.09h8.58A.51.51,0,0,1,46.16,24.82ZM42.63,19v3.28H37.08a6.57,6.57,0,0,0,0,13.13h5.55V39a3,3,0,0,1-3,3H7.3a3,3,0,0,1-3-3V14.78A5.39,5.39,0,0,0,7.68,16H39.6A3,3,0,0,1,42.63,19ZM7.68,7.16H34.55a3,3,0,0,1,3,3V14H7.68a3.41,3.41,0,0,1,0-6.81Z"/><path class="cls-1" d="M36.32,28.86a1.77,1.77,0,1,0,1.77-1.77h0A1.77,1.77,0,0,0,36.32,28.86Zm1.77-.26a.26.26,0,0,1,0,.51.26.26,0,1,1,0-.51Z"/></svg>