<svg id="Layer_3" data-name="Layer 3" xmlns="http://www.w3.org/2000/svg" xmlns:xlink="http://www.w3.org/1999/xlink" width="100" height="100" viewBox="0 0 100 100"><defs><style>.cls-1{fill:url(#Áåçûìÿííûé_ãðàäèåíò_12);}.cls-2{fill:#d2eafd;}.cls-3{fill:url(#Áåçûìÿííûé_ãðàäèåíò_8);}.cls-4{fill:#fff;}.cls-5{fill:#3834d8;}.cls-6{fill:#06529c;}.cls-7{fill:#5791cc;}.cls-8{fill:#386ca7;}.cls-9{fill:#f6f6f6;}.cls-10{fill:#64f4f4;}.cls-11{fill:#33435a;}.cls-12{fill:url(#linear-gradient);}.cls-13{fill:url(#linear-gradient-2);}.cls-14{fill:#d0e8f4;}.cls-15{fill:#f6c5b0;}.cls-16{fill:#427ccc;}.cls-17{opacity:0.1;}.cls-18{fill:url(#linear-gradient-3);}.cls-19{fill:url(#linear-gradient-4);}</style><linearGradient id="Áåçûìÿííûé_ãðàäèåíò_12" x1="31.08" y1="73.6" x2="49.26" y2="73.6" gradientUnits="userSpaceOnUse"><stop offset="0" stop-color="#6a9bcf"/><stop offset="1" stop-color="#163d7a"/></linearGradient><linearGradient id="Áåçûìÿííûé_ãðàäèåíò_8" x1="31.92" y1="73.23" x2="69.74" y2="73.23" gradientUnits="userSpaceOnUse"><stop offset="0" stop-color="#e7f4ff"/><stop offset="1" stop-color="#d2eafd"/></linearGradient><linearGradient id="linear-gradient" x1="13.54" y1="33.7" x2="18.55" y2="33.7" gradientUnits="userSpaceOnUse"><stop offset="0" stop-color="#ffa894"/><stop offset="1" stop-color="#fc7b65"/></linearGradient><linearGradient id="linear-gradient-2" x1="19.66" y1="24.94" x2="12.1" y2="34.91" gradientUnits="userSpaceOnUse"><stop offset="0" stop-color="#3834a1"/><stop offset="0.59" stop-color="#22245b"/><stop offset="1" stop-color="#121928"/></linearGradient><linearGradient id="linear-gradient-3" x1="78.97" y1="36.3" x2="84.15" y2="36.3" xlink:href="#linear-gradient"/><linearGradient id="linear-gradient-4" x1="85.59" y1="40.71" x2="74.94" y2="64.07" xlink:href="#linear-gradient-2"/></defs><title>Artboard 3</title><polygon class="cls-1" points="34.27 77.92 49.26 69.27 32.36 70.06 31.31 71.07 31.08 72.57 31.25 73.59 31.75 74.84 32.25 75.81 32.82 76.54 34.27 77.92"/><path class="cls-2" d="M46.87,61.37l.08,0h0a2.37,2.37,0,0,1,2.31.26L69.74,73.4a1.31,1.31,0,0,0-.24.23l-.78-.45-4.14,9-2.15,2.92L61,85.6l-1.41-.55-6.81-3.87-13.5-7.72-5-3-1.29-.41L31.91,70Z"/><path class="cls-3" d="M63.05,83.38a7.36,7.36,0,0,0-3.33-5.77V78a6.64,6.64,0,0,1,3,5.21c0,1.92-1.35,2.7-3,1.74L34.27,70.24A2.33,2.33,0,0,0,31.92,70l14.95-8.64.08,0h0a2.37,2.37,0,0,1,2.31.26L69.74,73.4a1.31,1.31,0,0,0-.24.23l-.78-.45-4.14,9-1.71,2.34A3.6,3.6,0,0,0,63.05,83.38Z"/><polygon class="cls-2" points="31.91 70.01 31.91 70.01 31.91 70.01 31.91 70.01"/><path class="cls-4" d="M63.05,83.17v.11A7,7,0,0,0,62,80l.09-.06A6.86,6.86,0,0,1,63.05,83.17Z"/><path class="cls-4" d="M34.27,70l25.45,14.7c1.62.94,3,.21,3-1.61v.07c0,1.92-1.35,2.7-3,1.74L34.27,70.24A2.33,2.33,0,0,0,31.92,70l.72-.42A2.85,2.85,0,0,1,34.27,70Z"/><path class="cls-4" d="M64.58,82l4.14-9,.78.45a.52.52,0,0,1,.1-.11l.14.08a1.31,1.31,0,0,0-.24.23l-.78-.45-4.14,9-1.71,2.34.09-.34Z"/><polygon class="cls-2" points="31.91 69.81 31.91 69.81 31.91 69.8 31.91 69.81"/><path class="cls-5" d="M74.71,69h0A7.36,7.36,0,0,1,78,74.72a2.36,2.36,0,0,1-.92,2.11h0l-.1.06L62.08,85.53,63,83.87l-.11-1.65-.29-.92-.44-1s-.36-.68-.38-.69-.54-.69-.54-.69l-.51-.52-.54-.35-.46-.45Z"/><path class="cls-6" d="M34.27,77.92v-.36a6.67,6.67,0,0,1-3-5.22c0-1.92,1.35-2.7,3-1.74L59.72,85.3c1.84,1.06,3.33.19,3.33-1.92a7.36,7.36,0,0,0-3.33-5.77V78a6.64,6.64,0,0,1,3,5.21c0,1.92-1.35,2.7-3,1.74L34.27,70.24c-1.84-1.06-3.33-.2-3.33,1.92A7.33,7.33,0,0,0,34.27,77.92Z"/><polygon class="cls-7" points="58 75.45 46.67 68.85 46.24 69.1 57.56 75.7 58 75.45"/><polygon class="cls-7" points="57.8 73.15 48.58 67.77 48.14 68.02 57.37 73.39 57.8 73.15"/><polygon class="cls-7" points="56.2 73.31 47.62 68.31 47.19 68.56 55.76 73.56 56.2 73.31"/><polygon class="cls-7" points="58.95 74.91 56.85 73.69 56.42 73.94 58.51 75.16 58.95 74.91"/><path class="cls-4" d="M45.07,69.88h0a.13.13,0,0,0,.07-.13L44.91,68l-1.18.57,1.2,1.24A.12.12,0,0,0,45.07,69.88Z"/><path class="cls-8" d="M40.62,64.43A3.57,3.57,0,0,0,43.53,63c.57-.85.21-1.6-.82-1.68a3.54,3.54,0,0,0-2.9,1.42C39.23,63.61,39.6,64.36,40.62,64.43Z"/><path class="cls-5" d="M30,45.12l4.85-2.36,8.85,19.13-2.11,1,2.11-1,.07.14a11.87,11.87,0,0,1,1.15,6.23.3.3,0,0,1,0,.28.94.94,0,0,1-.76.37.31.31,0,0,1-.25-.13l-.46-.33A12,12,0,0,1,40,64.6l-.4-.71h0Z"/><path class="cls-2" d="M31.21,45.77a4.24,4.24,0,0,0,3.43-1.67c.68-1,.25-1.9-1-2a4.19,4.19,0,0,0-3.43,1.67C29.57,44.79,30,45.68,31.21,45.77Z"/><path class="cls-2" d="M30.81,45a4.19,4.19,0,0,0,3.43-1.67c.68-1,.25-1.89-1-2A4.2,4.2,0,0,0,29.85,43C29.17,44,29.6,44.86,30.81,45Z"/><path class="cls-7" d="M31.28,45.91a4.19,4.19,0,0,0,3.43-1.67c.68-1,.25-1.89-1-2a4.19,4.19,0,0,0-3.43,1.67C29.64,44.94,30.07,45.82,31.28,45.91Z"/><path class="cls-4" d="M31.28,45.91a4.19,4.19,0,0,0,3.43-1.67,1.43,1.43,0,0,0,.3-1.11,1.21,1.21,0,0,1-.08,1.54,4.2,4.2,0,0,1-3.43,1.67c-.73-.05-1.17-.39-1.27-.86A1.5,1.5,0,0,0,31.28,45.91Z"/><rect class="cls-7" x="29.56" y="42.95" width="5.39" height="1.19" transform="translate(-15.81 18.51) rotate(-25.96)"/><path class="cls-9" d="M20.4,25.36,25.25,23l9.17,18.83h0l0,.11h0a1.44,1.44,0,0,1-.27,1.22,4.23,4.23,0,0,1-3.43,1.67,1.43,1.43,0,0,1-1.13-.54h0Z"/><path class="cls-7" d="M28.8,29.55l.37-.55a1.22,1.22,0,0,0,0-1.24l-1-2.06A1.49,1.49,0,0,0,27,24.94l-1-.07a.79.79,0,0,1-.48-.24l-.46,0,.32-.47h0a.24.24,0,0,1,.25-.1l1,.07A3.13,3.13,0,0,1,29,25.76l1,2.06A1.78,1.78,0,0,1,30,29.59l-.37.55a1.22,1.22,0,0,0,0,1.24l4.05,8.32a.27.27,0,0,1,0,.26h0l-.32.47L33.31,40a.81.81,0,0,1-.41-.36l-4-8.32A1.78,1.78,0,0,1,28.8,29.55Z"/><path class="cls-7" d="M28.85,29.48a1.23,1.23,0,0,0,0-1.24l-1-2.07a1.54,1.54,0,0,0-1.13-.76l-1-.07a.82.82,0,0,1-.61-.41c-.1-.21,0-.37.24-.35l1,.07a3.13,3.13,0,0,1,2.35,1.58l1,2.07a1.71,1.71,0,0,1,.05,1.76l-.37.55a1.24,1.24,0,0,0,0,1.25l4.05,8.31c.1.22,0,.37-.24.36a.79.79,0,0,1-.61-.42l-4-8.31A1.73,1.73,0,0,1,28.48,30Z"/><path class="cls-2" d="M21.59,26A4.2,4.2,0,0,0,25,24.33c.68-1,.25-1.89-1-2A4.22,4.22,0,0,0,20.63,24C20,25,20.38,25.92,21.59,26Z"/><path class="cls-8" d="M22,25.35a2.81,2.81,0,0,0,2.1-1.15c.43-.64.2-1.18-.51-1.19a2.77,2.77,0,0,0-2.1,1.14C21.09,24.8,21.31,25.34,22,25.35Z"/><path class="cls-10" d="M21.56,24.45l2.09-1-1.95-4a1.17,1.17,0,0,0-1.56-.54h0a1.17,1.17,0,0,0-.53,1.56Z"/><path class="cls-5" d="M22.08,24.73A1.81,1.81,0,0,0,23.56,24c.29-.43.1-.81-.42-.85a1.8,1.8,0,0,0-1.48.72C21.37,24.31,21.55,24.7,22.08,24.73Z"/><path class="cls-11" d="M12.06,81.36l.18.57.93.46s.88.49,1.4.7c.29.12.36,0,.35,0l-1-1.5a.6.6,0,0,0-.08-.08l-1.29-.92a.34.34,0,0,0-.54.23l0,.24A.34.34,0,0,0,12.06,81.36Z"/><polygon class="cls-5" points="13.54 51.44 13.07 54.39 14.97 67.79 11.88 80.91 13.74 81.6 20.77 66.19 21.38 61.4 21.11 51.38 13.54 51.44"/><path class="cls-11" d="M25.61,81.58l.92.29,1.14.25a.25.25,0,0,0,.25-.41L26,80l-1.16.12Z"/><polygon class="cls-5" points="26.15 51.32 27.33 63.81 26.31 80.14 24.5 80.29 22.12 65.5 18.41 50.83 26.15 51.32"/><path class="cls-12" d="M17.88,36.19l-1.59.6a8,8,0,0,1-.52-1.25c-.49.06-1.09.08-1.38-.32a1.36,1.36,0,0,1-.18-.43l-.56-1.87a1.69,1.69,0,0,1-.1-.66,1.45,1.45,0,0,1,.66-.94,3.52,3.52,0,0,1,2.85-.64,1.6,1.6,0,0,1,.71.36,2.06,2.06,0,0,1,.47,1.12l.23,1.12a1.43,1.43,0,0,1-.13,1.25c-.16.17-.4.26-.52.46S17.88,35.78,17.88,36.19Z"/><path class="cls-13" d="M20.17,27.94a5.21,5.21,0,0,1,.08-.55,8,8,0,0,0,.28-1.17,1,1,0,0,0-.48-1,1.3,1.3,0,0,0-.76-.05A4.86,4.86,0,0,0,17,26.22c-.62.53-1.1,1.14-1.95,1.23a2.65,2.65,0,0,0-1.8,1,17.85,17.85,0,0,0-2.11,1.94,2.2,2.2,0,0,0-.36,1,3.45,3.45,0,0,0,1.59,3.24,6,6,0,0,0,.77.36,3.67,3.67,0,0,0,1.78.38c-.2-.45-1.29-1.64-1.13-2.17.25-.84,1.56-1.24,2.3-1.43s1.7,0,2.48-.25A3.08,3.08,0,0,0,20,30.31C20.34,29.71,20.11,28.62,20.17,27.94Z"/><path class="cls-14" d="M11.26,57.88c.11,1.14.32,2.66.77,2.67a.4.4,0,0,0,.22-.1c.71-.5,1.17-1.14,1.87-1.63a8.63,8.63,0,0,1,2.46-1.09,25.09,25.09,0,0,1,3.93-.88c1.45-.19,4.3-.24,4.3-.24a15.78,15.78,0,0,0,2.29-1,30.86,30.86,0,0,0,3.8-1.94c.38-.24,1.42-1,1-1.46s-1.41-.52-1.9-.72a9.1,9.1,0,0,1-4.05-3,25.73,25.73,0,0,1-3.19-6.69c-.15-.41-.28-.83-.4-1.25-.08-.24-.18-1.17-.38-1.3-2-1.34-2.69-2.65-4.84-2-4.91,1.36-4.53,1.54-5.36,4.12a28.21,28.21,0,0,0-.68,4.84C11,47.54,11,51,11,52.35s.06,2.92.2,4.37C11.18,56.88,11.21,57.33,11.26,57.88Z"/><polygon class="cls-5" points="20.09 34.37 22.81 37.76 14.27 41.35 13.18 39.66 20.09 34.37"/><polygon class="cls-5" points="14.9 36.18 17.04 36.4 20.69 38.17 24.14 52.24 18.27 52.67 16.98 40.37 13.58 39.21 12.56 38.43 14.9 36.18"/><polygon class="cls-15" points="28.37 36.16 28.93 34.69 29.69 34.12 29.95 34.31 29.69 34.89 30.78 33.99 31.29 34.5 30.65 36.16 29.31 37.03 28.37 36.16"/><polygon class="cls-14" points="12.84 38.99 23.48 41.45 28 35.8 29.86 37.49 25.19 44.95 12.67 44.46 11.74 41.51 12.84 38.99"/><path class="cls-11" d="M86.85,82.57l.09.92L84.13,85a.26.26,0,0,1-.33-.37l.51-.78.78-1,1.67-1.14Z"/><polygon class="cls-16" points="86.84 54.57 87.12 57.35 84.61 66.91 86.91 82.26 85.21 82.85 80.73 67.86 80.02 63.49 80.05 54.26 86.84 54.57"/><polygon class="cls-16" points="73.72 57.66 77.28 83.39 78.91 83.39 79.22 66.9 82.2 55.33 73.72 57.66"/><path class="cls-11" d="M78.9,83.66v.45L76.21,85.6a.3.3,0,0,1-.42-.37l.47-1.12.88-.92H78.9Z"/><path class="cls-14" d="M77.8,38.85c1.23-1,4.19-.43,5.75-.43a80,80,0,0,0,1.71,10.19c.66,2.89,1.92,5.71,2.48,8.6a10.21,10.21,0,0,0,3.65,6.2c.32.27.69.63.59,1a1,1,0,0,1-.48.57c-2.07,1.42-4.74,1.57-7.26,1.61-1.91,0-3.82,0-5.72,0-2.49-.05-5.26-.34-7.38-1.79-.13-.09-.28-.2-.29-.37a.7.7,0,0,1,.17-.37c1.48-2,1.32-5.43,1.61-7.83a70.81,70.81,0,0,1,1.3-8.06,34.44,34.44,0,0,1,1.66-5c.52-1.24,1.13-3.27,2.11-4.23Z"/><path class="cls-5" d="M76.41,27.71a6.53,6.53,0,0,0-3-2.66,8.58,8.58,0,0,0-2.6-.55l-2.5-.26a7.15,7.15,0,0,0-3.19.35A6.41,6.41,0,0,0,62,27.15,6.64,6.64,0,0,0,61,30L59.63,43.22l2,.21L63,30.15a4.11,4.11,0,0,1,.37-1.38,4.78,4.78,0,0,1,.87-1.27,4.26,4.26,0,0,1,1.35-.94,4.34,4.34,0,0,1,1.63-.38h.33l.3,0,3.5.36a4.47,4.47,0,0,1,1.4.37A5.21,5.21,0,0,1,74,27.8a4.23,4.23,0,0,1,.93,1.35,4.39,4.39,0,0,1,.39,1.63v.33c0,.09,0,.19,0,.3L73.93,44.69l2,.21,1.37-13.28A6.33,6.33,0,0,0,76.41,27.71Z"/><path class="cls-5" d="M57.87,38,56.38,52.43a3.55,3.55,0,0,0,3.17,3.89l13.26,1.36a3.54,3.54,0,0,0,3.89-3.16l1.48-14.41Zm9.88,10.35-.35,3.47c0,.26-.35.43-.72.4h0c-.37,0-.64-.27-.62-.53l.36-3.47a2.68,2.68,0,1,1,1.35.14Z"/><path class="cls-17" d="M59,56.18h0a3.84,3.84,0,0,0,.59.11l13.26,1.36a3.54,3.54,0,0,0,3.89-3.16l.68-6.55C75.15,58.13,59,56.17,59,56.18Z"/><polygon class="cls-9" points="84.14 39.59 76.47 44.87 71.76 41.91 70.75 43.43 76.3 48.32 83.97 44.54 84.14 39.59"/><path class="cls-11" d="M81.44,34.56a2.13,2.13,0,0,0-2,1.55A2.32,2.32,0,0,1,79,34.05a2.36,2.36,0,0,1,1.41-1.56,2.63,2.63,0,0,1,1.08,1.69Z"/><path class="cls-18" d="M80.35,39.15A2.58,2.58,0,0,1,79,37.22a5.09,5.09,0,0,1,.27-2.41c.83-2.58,4.08-1.71,4.76.55C84.64,37.33,82.5,40.16,80.35,39.15Z"/><path class="cls-19" d="M81.24,57.2c-.47-.35-.41-1.06-.53-1.63s-.85-1.15-1.23-.71a2.27,2.27,0,0,1-1.24-2.16,6.68,6.68,0,0,1,.69-2.53c.76-1.8,1.47-3.63,2.28-5.4a21.36,21.36,0,0,0,1.37-5.32,4.53,4.53,0,0,0-.43-2.65,14.1,14.1,0,0,0-1.43-2.31,2.14,2.14,0,0,1-.48-1,1.42,1.42,0,0,1,.49-1.11,1.93,1.93,0,0,1,1.62-.55,4.4,4.4,0,0,1,4,3.92,16.52,16.52,0,0,1-.54,5.62,13.7,13.7,0,0,0,1,8.66,9.18,9.18,0,0,1,1.31,3.24,2.7,2.7,0,0,1-1.47,2.9,7.13,7.13,0,0,0-1.31.41.76.76,0,0,0-.2,1.14c-.58.77-1,.1-1.62-.13S81.84,57.66,81.24,57.2Z"/><polygon class="cls-15" points="71.53 42.25 71.17 41.32 69.49 40.98 69.24 41.66 70.41 42.67 71.11 42.88 71.53 42.25"/></svg>