<svg xmlns="http://www.w3.org/2000/svg" xmlns:xlink="http://www.w3.org/1999/xlink" width="100" height="100" viewBox="0 0 100 100"><defs><style>.cls-1{isolation:isolate;}.cls-2{fill:url(#linear-gradient);}.cls-3{fill:#e0f4fc;}.cls-4{fill:#00b3f9;}.cls-5{fill:#0d5375;}.cls-6{fill:#65b8d1;}.cls-18,.cls-19,.cls-30,.cls-7{opacity:0.25;mix-blend-mode:overlay;}.cls-8{fill:#8bdef2;}.cls-9{fill:#008eba;}.cls-10{fill:#02374c;}.cls-11,.cls-12,.cls-19,.cls-20,.cls-30{fill:none;stroke-miterlimit:10;stroke-width:1.29px;}.cls-11,.cls-12,.cls-19,.cls-20{stroke:#f9f9f9;}.cls-11,.cls-12,.cls-20,.cls-30{stroke-linecap:round;}.cls-12{stroke-dasharray:3.73 3.73;}.cls-13{fill:url(#linear-gradient-2);}.cls-14{fill:#0c1c28;}.cls-15{fill:url(#linear-gradient-3);}.cls-16{fill:#07171c;}.cls-17{fill:url(#linear-gradient-4);}.cls-18,.cls-29{fill:#fff;}.cls-20{stroke-dasharray:3.75 3.75;}.cls-21{fill:#1c1c1c;}.cls-22{fill:url(#linear-gradient-5);}.cls-23{fill:url(#linear-gradient-6);}.cls-24{fill:#3a1508;}.cls-25{fill:#11191e;}.cls-26{fill:#1c262d;}.cls-27{fill:#cae7ef;}.cls-28{fill:#add0d8;}.cls-30{stroke:#000;}.cls-31{fill:#55c6ff;}.cls-32{fill:#003c54;}.cls-33{fill:#16374c;}</style><linearGradient id="linear-gradient" x1="14.04" y1="10.19" x2="118.17" y2="130.78" gradientUnits="userSpaceOnUse"><stop offset="0.16" stop-color="#3834a1"/><stop offset="0.22" stop-color="#3834a0"/><stop offset="0.33" stop-color="#363299"/><stop offset="0.5" stop-color="#302e86"/><stop offset="0.69" stop-color="#262767"/><stop offset="0.91" stop-color="#181e3c"/><stop offset="1" stop-color="#121928"/></linearGradient><linearGradient id="linear-gradient-2" x1="42.22" y1="51.55" x2="57.4" y2="52.95" gradientUnits="userSpaceOnUse"><stop offset="0" stop-color="#ffa894"/><stop offset="1" stop-color="#fc7b65"/></linearGradient><linearGradient id="linear-gradient-3" x1="52.28" y1="53.75" x2="67.44" y2="55.15" xlink:href="#linear-gradient-2"/><linearGradient id="linear-gradient-4" x1="61.94" y1="47.03" x2="63.7" y2="41.67" xlink:href="#linear-gradient-2"/><linearGradient id="linear-gradient-5" x1="43.5" y1="49.45" x2="43.25" y2="55.55" gradientUnits="userSpaceOnUse"><stop offset="0" stop-color="#ffb000"/><stop offset="1" stop-color="#ff6700"/></linearGradient><linearGradient id="linear-gradient-6" x1="47.88" y1="52.04" x2="47.4" y2="59.85" gradientUnits="userSpaceOnUse"><stop offset="0" stop-color="#4c1710"/><stop offset="1" stop-color="#723328"/></linearGradient></defs><title>Artboard 2</title><g class="cls-1"><g id="Layer_2" data-name="Layer 2"><path class="cls-2" d="M77.57,62.73a2.77,2.77,0,0,0,2.76,2.76h8.56a4.25,4.25,0,0,1,4,2.83,4.15,4.15,0,0,1,.24,1.42A4.25,4.25,0,0,1,88.89,74H75.18a1.07,1.07,0,0,0-1.07,1.07,1.08,1.08,0,0,0,1.07,1.06h6.25a3.38,3.38,0,0,1,1,.14l.06,0a3.75,3.75,0,0,1,2.66,3.6,3.66,3.66,0,0,1-.32,1.52A3.57,3.57,0,0,1,84,82.54a3.75,3.75,0,0,1-2.66,1.1H21a3.57,3.57,0,0,1-3-1.57,3.51,3.51,0,0,1-.63-2,3.59,3.59,0,0,1,1.06-2.54l.12-.12A3.57,3.57,0,0,1,21,76.46H22.2A1.49,1.49,0,0,0,23.69,75a1.54,1.54,0,0,0-.13-.6,1.39,1.39,0,0,0-.31-.45,1.48,1.48,0,0,0-1.05-.44H10.4a3.66,3.66,0,0,1-3.64-3.29c0-.12,0-.24,0-.37a3.67,3.67,0,0,1,3.66-3.66h5.18A2.41,2.41,0,0,0,18,63.75a2.39,2.39,0,0,0-2.41-2.41H8.06a4.4,4.4,0,1,1,0-8.79h5.7a3.86,3.86,0,0,0,3.86-3.86v-15a2.12,2.12,0,0,1,2.12-2.12,2.07,2.07,0,0,0,1.5-.62,2.12,2.12,0,0,0,.62-1.5V25.55a7,7,0,0,1,7.05-7h45.7a3.55,3.55,0,0,1,0,7.09H70.8a1.77,1.77,0,1,0,0,3.54H87.54a6.16,6.16,0,0,1,0,12.32,5.28,5.28,0,0,0-5.27,5.26v.12a5.27,5.27,0,0,0,5.27,5.26H89.2A3.94,3.94,0,0,1,93.14,56c0,.1,0,.2,0,.3A3.95,3.95,0,0,1,89.2,60H80.33A2.76,2.76,0,0,0,77.57,62.73Z"/><circle class="cls-3" cx="14.41" cy="27.28" r="2.39"/><circle class="cls-3" cx="97.38" cy="69.23" r="2.39"/><path class="cls-4" d="M56.8,68.61l-.1,0a.29.29,0,0,1-.19-.27V60.56a.29.29,0,0,1,.29-.29h6.89a.28.28,0,0,1,.26.17.28.28,0,0,1-.05.31L57,68.51A.32.32,0,0,1,56.8,68.61Zm.29-7.76v6.71L63,60.85Z"/><path class="cls-5" d="M64.76,61.13H53.46a.57.57,0,0,1-.57-.57h0a.57.57,0,0,1,.57-.58h11.3a.58.58,0,0,1,.57.58h0A.58.58,0,0,1,64.76,61.13Z"/><path class="cls-6" d="M78.15,44.94S76,59.62,75.9,59.77s-6,8-6,8l-3.76-2.26L64.77,51.64l2.92-6.29.19-.41h2.06a2.92,2.92,0,0,1,2.72-1.52,2.79,2.79,0,0,1,.88.12h0a1.6,1.6,0,0,1,1.18,1.4Z"/><path class="cls-7" d="M78.15,44.94S76,59.62,75.9,59.77s-6,8-6,8l-3.76-2.26L64.77,51.64l2.92-6.29c.5,0,1.28.48,2.25,2.25,1.74,3.2,2.65,3.82,3.88,3.78,1,0,1.51-4.46,3.32-6.44Z"/><path class="cls-8" d="M76.2,44.94H74.74a1.6,1.6,0,0,0-1.18-1.4,10,10,0,0,1,2.39.93C76,44.57,76.1,44.73,76.2,44.94Z"/><path class="cls-5" d="M57.71,68.32a.91.91,0,1,1-.91-.91A.91.91,0,0,1,57.71,68.32Z"/><polygon class="cls-9" points="54.47 83.64 53.38 83.64 46.47 57.11 47.55 57.11 54.47 83.64"/><polygon class="cls-7" points="54.47 83.64 53.87 83.64 46.96 57.11 47.55 57.11 54.47 83.64"/><path class="cls-5" d="M58.59,63.36,58,64.9s-.64,1-1.48,2.06l0,0h0A10.35,10.35,0,0,1,54,69.51c-.66.37-2,2.32-3.39,4.48-1.92,3-3.87,6.45-4,6.45A10.45,10.45,0,0,1,44,78.85c-.05-.27,4.45-9.69,5.82-12l.12-.18a9.42,9.42,0,0,1,2.44-2.24c.4-.29.8-.55,1.18-.78,1-.63,1.79-1,1.79-1l2.83.62Z"/><path class="cls-10" d="M53.18,65.31a24.85,24.85,0,0,1-2.5,2c-.27,0-.61-.2-.83-.4l.12-.18a12.5,12.5,0,0,1,3.62-3A1.1,1.1,0,0,1,53.18,65.31Z"/><path class="cls-7" d="M58.21,63.27A35.33,35.33,0,0,1,56.52,67l0,0h0A10.35,10.35,0,0,1,54,69.51c-.66.37-2,2.32-3.39,4.48a42.15,42.15,0,0,0,1.83-9.52c.4-.29.8-.55,1.18-.78,1-.63,1.79-1,1.79-1Z"/><g class="cls-7"><path class="cls-11" d="M54.4,66.16a7.56,7.56,0,0,0-1.6,1.58"/><path class="cls-12" d="M50.72,70.83c-.85,1.49-1.79,3.35-2.57,5"/><path class="cls-11" d="M47.36,77.49c-.57,1.22-.94,2.05-.94,2.05"/></g><path class="cls-5" d="M69.62,66.65c-.75,1.24-2.23.91-4.45.61a23.62,23.62,0,0,0-6.28.14c-.31.11-1.26,4.9-2.07,8.72-.42,2-.81,3.82-1,4.46h0c-.05.15-.09.24-.13.25a3,3,0,0,1-2.85-.44,79,79,0,0,1,.6-13.6,9.86,9.86,0,0,1,.88-3.16,4.07,4.07,0,0,1,2.17-1.46h0l.09,0a19.16,19.16,0,0,1,3.76-.79c.6.85,2.43.52,3.84.73a9.48,9.48,0,0,0,1.19.1c1.62,0,3.76-.16,4.27-.63A5.12,5.12,0,0,1,69.62,66.65Z"/><path class="cls-7" d="M69.62,66.65c-.75,1.24-2.23.91-4.45.61a23.62,23.62,0,0,0-6.28.14c-.31.11-1.26,4.9-2.07,8.72.31-3.62.86-10,1-10s1,.84,1,.84,6.82-.83,6-1.88A13.84,13.84,0,0,0,59.53,62a6.56,6.56,0,0,0-3.06.22l.09,0a19.16,19.16,0,0,1,3.76-.79c.6.85,2.43.52,3.84.73a9.48,9.48,0,0,0,1.19.1c1.62,0,3.76-.16,4.27-.63A5.12,5.12,0,0,1,69.62,66.65Z"/><path class="cls-13" d="M58,53.66l-1.66.19-3.59-.1c-2.53-.08-5.57-.18-6.16-.23-1.05-.08-3-.52-2.86-.82s1.37-.44,2-.47,1.59.47,2,.47,4.54-.17,5.91-.25l.4,0a11.27,11.27,0,0,0,2-1.18l1.19.33Z"/><path class="cls-7" d="M58,53.66l-1.66.19-3.59-.1.82-1.3.4,0a11.27,11.27,0,0,0,2-1.18l1.19.33Z"/><path class="cls-14" d="M69.72,61.39a.33.33,0,0,1-.1.15h0c-.51.47-2.65.67-4.27.63a9.48,9.48,0,0,1-1.19-.1c-1.41-.21-3.24.12-3.84-.73a1,1,0,0,1-.18-.44c-.22-1.29.66-3.08.54-5.12a5.43,5.43,0,0,0-.06-.55c0-.19-.06-.39-.08-.59s0-.24,0-.36c-.08-.57-.16-1.14-.22-1.68a11.9,11.9,0,0,1-2.6,1.13.56.56,0,0,1-.24-.14c-.6-.51-1.7-2.2-1.47-2.39s5.38-3.92,5.38-3.92a7.21,7.21,0,0,1,1.59-.9c.23-.09.48-.18.74-.26h0a8.78,8.78,0,0,1,1-.26l.47.1h0c.2,0,.44.09.7.16h0c1,.26,2.44.73,2.82,1.35a2.28,2.28,0,0,1,.23.77c.45,2.31.55,8.44.64,9.48C69.62,58.92,70,60.67,69.72,61.39Z"/><path class="cls-7" d="M69.72,61.39c-.19.58-2.6.83-4.37.78,1.35-.35,2.19-1,2.27-1.64.12-1.05-.87-1.4-2.82-1.84-1.31-.3-3.08-1.89-4.12-2.91a5.43,5.43,0,0,0-.06-.55c0-.19-.06-.39-.08-.59,2.74-1.36,7.85-7,7.85-7l.49.65c.45,2.31.55,8.44.64,9.48C69.62,58.92,70,60.67,69.72,61.39Z"/><path class="cls-7" d="M60.79,53.22v1.07h-.3c-.08-.57-.16-1.14-.22-1.68a11.9,11.9,0,0,1-2.6,1.13.56.56,0,0,1-.24-.14c1.48-.91,2.77-4.33,3.36-4.6C60.41,49.71,60.79,53.22,60.79,53.22Z"/><path class="cls-14" d="M69.94,50.91a7.54,7.54,0,0,1-1,3.25c-.23.38-.42.63-.51.62a.75.75,0,0,1-.25-.09c-.7-.31-2.52-1.38-2.85-2.34.09-.17.19-.33.28-.49a33.06,33.06,0,0,1,3-4.47S69.9,48,69.94,50.91Z"/><path class="cls-15" d="M68.15,54.69c-.32.41-.92,1.15-1.54,1.8s-1.43,1.35-1.83,1.27c-.92-.19-7.19-4.81-7.79-4.91s-3,.13-3,0,1.33-1.57,2-1.57,2.1.77,2.74.84S64.33,54,64.33,54l.56-1,.41-.7C65.63,53.31,67.45,54.38,68.15,54.69Z"/><path class="cls-7" d="M65.83,46.13c-.44,1.23-1.79,2.16-2.59,1.81s-.44-1.16-.31-1.56c.23-.09.48-.18.74-.26h0L65.09,46h0l.7.16Z"/><path class="cls-16" d="M61.54,44.37l-.6.1-.08,0c-.48.08-1-.48-1.12-1.26s.14-1.47.62-1.56l.69-.12a.53.53,0,0,0-.24.11l-.09.07a1,1,0,0,0-.26.49,1.88,1.88,0,0,0,0,.89,1.84,1.84,0,0,0,.33.83,1,1,0,0,0,.42.37A.57.57,0,0,0,61.54,44.37Z"/><path class="cls-7" d="M61.54,44.37l-.6.1a1.52,1.52,0,0,1-.86-1.24c-.13-.77.14-1.47.62-1.56h.11l-.09.07a1,1,0,0,0-.26.49,1.88,1.88,0,0,0,0,.89,1.84,1.84,0,0,0,.33.83,1,1,0,0,0,.42.37A.57.57,0,0,0,61.54,44.37Z"/><path class="cls-14" d="M66.28,40.94a6.3,6.3,0,0,1-1.46,3.76h0l-.9-3.09s-1,.41-2.11.85a5.79,5.79,0,0,1-1.49.44,2.29,2.29,0,0,1-1.44-.37,1.56,1.56,0,0,1-.52-2A1,1,0,0,1,59.2,40c.24-1.9,1.76-2.29,2.68-1.34l0,0h0a4.49,4.49,0,0,0,1.59-.13,1.32,1.32,0,0,1,1.25-.33,3.25,3.25,0,0,1,.67.22C66.07,38.78,66.35,39.77,66.28,40.94Z"/><path class="cls-17" d="M65.23,46.08a1.72,1.72,0,0,1-1.82,1.37,2.85,2.85,0,0,1-.4-.78c-.15-.37-.29-.74-.31-.8h-.22a1.6,1.6,0,0,1-.6-.25A4.42,4.42,0,0,1,60.34,43a.74.74,0,0,1,0-.12,5.79,5.79,0,0,0,1.49-.44c1.14-.44,2.11-.85,2.11-.85l.7,2.4.2.69h0A8.77,8.77,0,0,0,65.23,46.08Z"/><path class="cls-7" d="M66.28,40.94a6.3,6.3,0,0,1-1.46,3.76h0l-.9-3.09s-1,.41-2.11.85a5.79,5.79,0,0,1-1.49.44,2.29,2.29,0,0,1-1.44-.37,1.56,1.56,0,0,1-.52-2A1.67,1.67,0,0,0,59.08,42a1.37,1.37,0,0,1,.09-1c0,.51.32,1,1.45,1.15s2.46-.72,2.22-1.81a2.62,2.62,0,0,0-.91-1.56,4.49,4.49,0,0,0,1.59-.13,1.32,1.32,0,0,1,1.25-.33c-.4.53.81,2.08,1.36,2.5A.65.65,0,0,1,66.28,40.94Z"/><path class="cls-7" d="M63,46.67c-.15-.37-.29-.74-.31-.8a1.42,1.42,0,0,0,1.06-.81C63.92,45.39,63.26,46.33,63,46.67Z"/><path class="cls-7" d="M64.62,44c-.9-.55-1.76-1.39-3.08-1.11a5,5,0,0,1-1.2.12.74.74,0,0,1,0-.12,5.79,5.79,0,0,0,1.49-.44c1.14-.44,2.11-.85,2.11-.85Z"/><path class="cls-4" d="M64.7,40.64l-.77.3s0-.06,0-.15c-.1-.54-.53-2.32-1.85-2,.19-.41,2.06-.74,2.56,1.43C64.65,40.33,64.68,40.48,64.7,40.64Z"/><path class="cls-4" d="M65.47,43.41a.58.58,0,0,1-.36-.06,1.1,1.1,0,0,1-.42-.37,2.09,2.09,0,0,1-.33-.83,2,2,0,0,1,0-.89,1.16,1.16,0,0,1,.27-.49A.59.59,0,0,1,65,40.6c.48-.09,1,.47,1.11,1.25S66,43.32,65.47,43.41Z"/><path class="cls-16" d="M65.79,42.77a.3.3,0,0,1-.16,0l0,0a.33.33,0,0,1-.14-.1.52.52,0,0,1-.1-.11,1.08,1.08,0,0,1-.2-.49,1.33,1.33,0,0,1,0-.53.58.58,0,0,1,0-.14.53.53,0,0,1,.11-.14l0,0a.3.3,0,0,1,.15-.07c.28,0,.58.28.66.73S66.07,42.72,65.79,42.77Z"/><path class="cls-7" d="M65.73,42.78a.43.43,0,0,1-.29.24.33.33,0,0,1-.17,0l0,0a.65.65,0,0,1-.15-.1.63.63,0,0,1-.1-.12,1.14,1.14,0,0,1-.19-.49,1.19,1.19,0,0,1,0-.5,1.1,1.1,0,0,0,0,.31,1.2,1.2,0,0,0,.19.49.84.84,0,0,0,.25.22.39.39,0,0,0,.21,0Z"/><path class="cls-16" d="M65.47,43.41l-.68.12c-.48.08-1-.48-1.11-1.26s.14-1.47.62-1.56L65,40.6a.59.59,0,0,0-.32.17,1.16,1.16,0,0,0-.27.49,2,2,0,0,0,0,.89,2.09,2.09,0,0,0,.33.83,1.1,1.1,0,0,0,.42.37A.58.58,0,0,0,65.47,43.41Z"/><path class="cls-7" d="M64.7,40.64l-.77.3s0-.06,0-.15a1,1,0,0,1,.71-.6C64.65,40.33,64.68,40.48,64.7,40.64Z"/><path class="cls-9" d="M65.79,42.77h-.06l-.26,0a.39.39,0,0,1-.21,0,.84.84,0,0,1-.25-.22,1.2,1.2,0,0,1-.19-.49,1.1,1.1,0,0,1,0-.31h0a1.12,1.12,0,0,1,0-.21.62.62,0,0,1,.15-.29.39.39,0,0,1,.19-.1l.32-.06a.3.3,0,0,0-.15.07l0,0a.53.53,0,0,0-.11.14h0a.5.5,0,0,0,0,.13,1.33,1.33,0,0,0,0,.53,1.08,1.08,0,0,0,.2.49.52.52,0,0,0,.1.11.33.33,0,0,0,.14.1l0,0,.1,0Z"/><path class="cls-18" d="M68.91,54.16c-.23.38-.42.63-.51.62a.75.75,0,0,1-.25-.09c-.7-.31-2.52-1.38-2.85-2.34.09-.17.19-.33.28-.49A11.5,11.5,0,0,0,68.91,54.16Z"/><path class="cls-7" d="M68.15,54.69c-.32.41-.92,1.15-1.54,1.8a6.53,6.53,0,0,1-1.72-3.44l.41-.7C65.63,53.31,67.45,54.38,68.15,54.69Z"/><path class="cls-10" d="M55.71,63.89c-.87.86-1.29,3.13-1.5,3.11s-.54-.13-.81-.21a9.86,9.86,0,0,1,.88-3.16,4.23,4.23,0,0,1,2.28-1.5,5.55,5.55,0,0,1,.53.87C57.14,63.19,56.62,63,55.71,63.89Z"/><path class="cls-19" d="M66.52,62.88a1.48,1.48,0,0,0,1.1,1.69"/><g class="cls-7"><path class="cls-11" d="M66.16,63.69s-1,.07-2.24.25"/><path class="cls-20" d="M60.26,64.74a4,4,0,0,0-2.51,1.6c-.55,1.29-1.37,6.24-1.92,9.89"/><path class="cls-11" d="M55.56,78.08c-.19,1.34-.31,2.23-.31,2.23"/></g><path class="cls-21" d="M56,83.64H49.27a1,1,0,0,1,.18-.59,4.27,4.27,0,0,1,2-1.3c.36-.14.66-.25.82-.33a1.11,1.11,0,0,0,.48-1,2.56,2.56,0,0,0,.61.4l.18.06h0a3.22,3.22,0,0,0,2.06,0s.08-.1.13-.25l.09,1.15L56,83.05Z"/><path class="cls-21" d="M46.62,80.44s-.2.51-.46,1.12A14.83,14.83,0,0,1,45.48,83c-.2.38-.4.64-.52.64-.43,0-5-2.61-5.46-3.87a1.42,1.42,0,0,1,.53-.3,6.16,6.16,0,0,1,2.21,0,3.71,3.71,0,0,0,.58,0c1.32-.05,1.21-.69,1.21-.69a2,2,0,0,0,.66.53c.14.1.3.19.46.29A9.24,9.24,0,0,0,46.62,80.44Z"/><path class="cls-7" d="M53.41,80.79c-.2,1.07-.92,1.53-1.29,1.48a1,1,0,0,1-.62-.52c.36-.14.66-.25.82-.33a1.11,1.11,0,0,0,.48-1A2.56,2.56,0,0,0,53.41,80.79Z"/><path class="cls-7" d="M44.69,79.38a2.25,2.25,0,0,1-2.08.93c-.24-.08-.34-.53-.37-.79a3.71,3.71,0,0,0,.58,0c1.32-.05,1.21-.69,1.21-.69A2,2,0,0,0,44.69,79.38Z"/><path class="cls-7" d="M45.48,83c-.2.38-.4.64-.52.64-.43,0-5-2.61-5.46-3.87a1.42,1.42,0,0,1,.53-.3C40.8,80.19,43.47,82.58,45.48,83Z"/><path class="cls-7" d="M46.62,80.44s-.2.51-.46,1.12l-1-1.89A9.24,9.24,0,0,0,46.62,80.44Z"/><path class="cls-7" d="M55.87,81.73a5.07,5.07,0,0,1-2.28-.88,3.22,3.22,0,0,0,2.06,0s.08-.1.13-.25Z"/><path class="cls-22" d="M41.45,54a1.61,1.61,0,0,1,1-1.05,4.63,4.63,0,0,1,2.5.45c.37.12.09.6.09.6Z"/><polygon class="cls-23" points="43.24 54.02 43.72 53.17 52.33 53.17 52 54.02 43.24 54.02"/><polygon class="cls-24" points="52.33 53.17 57.58 53.48 57.75 54.02 52 54.02 52.33 53.17"/><path class="cls-5" d="M67.23,83.64H62.78a.55.55,0,0,1-.55-.61.58.58,0,0,1,.58-.5h0a1.61,1.61,0,0,0,1.62-1.61V69.73h1.15V80.92a1.62,1.62,0,0,0,1.62,1.61h0a.58.58,0,0,1,.58.5A.55.55,0,0,1,67.23,83.64Z"/><path class="cls-7" d="M67.23,83.64H63.65a.55.55,0,0,1-.56-.61.58.58,0,0,1,.58-.5h0a1.62,1.62,0,0,0,1.62-1.61V69.73h.28V80.92a1.62,1.62,0,0,0,1.62,1.61h0a.58.58,0,0,1,.58.5A.55.55,0,0,1,67.23,83.64Z"/><path class="cls-8" d="M80.34,46.48h0L72.57,69.73H58.8a.68.68,0,0,1-.67-.79l.23-1.37A.68.68,0,0,1,59,67h9.83a1.06,1.06,0,0,0,1-.71l7.43-20.77a.93.93,0,0,1,1.11-.58l1.31.36A.92.92,0,0,1,80.34,46.48Z"/><path class="cls-7" d="M80.34,46.49,72.57,69.73h-13l.13-.78a.68.68,0,0,1,.67-.57h9.83a1.05,1.05,0,0,0,1-.71L78.61,46.9a.93.93,0,0,1,1.11-.58Z"/><path class="cls-4" d="M65.58,68.61l-.1,0a.29.29,0,0,1-.19-.27V60.56a.29.29,0,0,1,.29-.29h6.88a.28.28,0,0,1,.27.17.3.3,0,0,1,0,.31L65.8,68.51A.32.32,0,0,1,65.58,68.61Zm.29-7.76v6.71l5.95-6.71Z"/><path class="cls-5" d="M66.49,68.32a.91.91,0,1,1-.91-.91A.91.91,0,0,1,66.49,68.32Z"/><path class="cls-5" d="M74.06,61.13H62.24a.57.57,0,0,1-.57-.57h0a.57.57,0,0,1,.57-.58H74.06a.57.57,0,0,1,.57.58h0A.57.57,0,0,1,74.06,61.13Z"/><path class="cls-25" d="M35.07,57.11H25.23a1.55,1.55,0,1,1,0-3.09h9.84a1.53,1.53,0,0,0-1.09.45,1.46,1.46,0,0,0-.32.47,1.44,1.44,0,0,0-.13.62A1.54,1.54,0,0,0,35.07,57.11Z"/><path class="cls-26" d="M61.3,55.56a1.54,1.54,0,0,1-1.55,1.55H35.07a1.54,1.54,0,0,1-1.54-1.55,1.44,1.44,0,0,1,.13-.62,1.46,1.46,0,0,1,.32-.47A1.53,1.53,0,0,1,35.07,54H59.75A1.54,1.54,0,0,1,61.3,55.56Z"/><path class="cls-7" d="M57.43,56.49a1.33,1.33,0,0,1-.16.62h-32a1.54,1.54,0,0,1-.43-.06,1.34,1.34,0,0,1-.12-.56,1.42,1.42,0,0,1,.53-1.09,2,2,0,0,1,1.29-.46H55.6A1.71,1.71,0,0,1,57.43,56.49Z"/><polygon class="cls-9" points="28.43 57.11 21.52 83.64 20.43 83.64 27.35 57.11 28.43 57.11"/><polygon class="cls-7" points="28.43 57.11 21.52 83.64 20.93 83.64 27.84 57.11 28.43 57.11"/><polygon class="cls-4" points="38.4 57.11 31.48 83.64 30.39 83.64 37.31 57.11 38.4 57.11"/><polygon class="cls-7" points="38.4 57.11 31.48 83.64 30.97 83.64 37.88 57.11 38.4 57.11"/><polygon class="cls-4" points="64.43 83.64 63.34 83.64 56.43 57.11 57.52 57.11 64.43 83.64"/><polygon class="cls-7" points="64.43 83.64 63.92 83.64 57.01 57.11 57.52 57.11 64.43 83.64"/><path class="cls-27" d="M69.25,33.53H53.76a1,1,0,0,1-1-1h0a1,1,0,0,1,1-1H69.25a1,1,0,0,1,1,1h0A1,1,0,0,1,69.25,33.53Z"/><path class="cls-28" d="M56.34,37.2h0a.5.5,0,0,1-.5-.5V33.53h1V36.7A.5.5,0,0,1,56.34,37.2Z"/><path class="cls-28" d="M66.7,37.2h0a.5.5,0,0,1-.5-.5V33.53h1V36.7A.5.5,0,0,1,66.7,37.2Z"/><rect class="cls-28" x="57.1" y="26.24" width="1.04" height="5.36" rx="0.52" ry="0.52"/><rect class="cls-28" x="64.25" y="26.24" width="1.04" height="5.36" rx="0.52" ry="0.52"/><rect class="cls-29" x="58.14" y="26.24" width="1.88" height="5.36" rx="0.94" ry="0.94"/><rect class="cls-6" x="61.5" y="26.24" width="1.88" height="5.36" rx="0.94" ry="0.94" transform="translate(14.46 -20.41) rotate(20.95)"/><path class="cls-8" d="M36.62,77l-3.81,1.56L28.1,66.93a2.07,2.07,0,0,1,1.13-2.69h0a2.07,2.07,0,0,1,2.69,1.13Z"/><line class="cls-30" x1="29.23" y1="64.24" x2="34.21" y2="76.06"/><path class="cls-6" d="M34.83,78.41,31.7,77.19a.38.38,0,0,1-.22-.49L34,70.35a2.06,2.06,0,0,1,2.66-1.18h0a2.07,2.07,0,0,1,1.18,2.67l-2.47,6.35A.39.39,0,0,1,34.83,78.41Z"/><line class="cls-30" x1="36.61" y1="69.17" x2="33.66" y2="76.46"/><path class="cls-6" d="M38.25,77l-.35,2-.65,3.62a1.21,1.21,0,0,1-1.2,1H31.27a1.21,1.21,0,0,1-1.2-1l-1-5.58a1.21,1.21,0,0,1,1.2-1.41h6.78A1.22,1.22,0,0,1,38.25,77Z"/><path class="cls-7" d="M37.9,79l-.65,3.62a1.21,1.21,0,0,1-1.2,1H32.6L32,80.4A1.22,1.22,0,0,1,33.22,79Z"/><rect class="cls-8" x="28.47" y="74.74" width="10.38" height="2.64" rx="1.32" ry="1.32"/><path class="cls-8" d="M86.43,74H82.31l0-.45L82,65.49l-.07-1.69a2.07,2.07,0,0,1,2-2.14H84a2.05,2.05,0,0,1,2.06,2l.07,1.85.05,1.13L86.24,69l.11,2.91Z"/><line class="cls-30" x1="83.89" y1="61.66" x2="84.55" y2="73.99"/><path class="cls-6" d="M89.86,70.36a2,2,0,0,1-.51,1.35l-2,2.28H81.9l.39-.45,2.09-2.4L86.24,69h0a2.06,2.06,0,0,1,2.91-.2A2,2,0,0,1,89.86,70.36Z"/><line class="cls-30" x1="89.15" y1="68.81" x2="84.55" y2="73.99"/><rect class="cls-8" x="27.83" y="41.25" width="11.13" height="12.77" rx="3.94" ry="3.94"/><rect class="cls-5" x="28.17" y="43.23" width="11.85" height="8.81" rx="1.37" ry="1.37" transform="translate(81.73 13.54) rotate(90)"/><polygon class="cls-18" points="29.93 54.02 28.61 54.02 32.07 41.25 33.39 41.25 29.93 54.02"/><polygon class="cls-18" points="33.45 54.02 30.77 54.02 34.23 41.25 36.9 41.25 33.45 54.02"/><rect class="cls-6" x="25.04" y="41.25" width="4.12" height="12.77" rx="2.06" ry="2.06"/><path class="cls-7" d="M28.34,51.21h-.71a.22.22,0,0,1-.22-.22h0a.22.22,0,0,1,.22-.22h.71a.22.22,0,0,1,.22.22h0A.22.22,0,0,1,28.34,51.21Z"/><path class="cls-7" d="M26.42,51.21H25.7a.22.22,0,0,1-.22-.22h0a.22.22,0,0,1,.22-.22h.72a.22.22,0,0,1,.22.22h0A.22.22,0,0,1,26.42,51.21Z"/><path class="cls-31" d="M34.5,54c-1,.3-1.06,1.86-1.17,3.37s-.21,3-1.16,3.45a.6.6,0,0,1-.24,0,.68.68,0,0,1-.49-.23c-1-1-1.49-5.52-.08-8.92a6.78,6.78,0,0,1,2.91-3.45c0,.11-.09.23-.13.35a6.69,6.69,0,0,0-2.57,3.19c-1.35,3.26-.94,7.71,0,8.67a.41.41,0,0,0,.48.13c.81-.35.92-1.83,1-3.26s.2-2.76.91-3.35Z"/><path class="cls-31" d="M37.54,47.67a.13.13,0,0,1-.12.11h-.08l-.51,0,.12-.24h.47A.13.13,0,0,1,37.54,47.67Z"/><path class="cls-31" d="M51,53.59a.12.12,0,0,1-.12.12c-.08,0-5.77,0-10.44.11-2.55,0-4.8.09-5.65.15a1.08,1.08,0,0,0-.27.05H34a1.28,1.28,0,0,1,.74-.28c.83-.06,3-.1,5.39-.14,4.71-.08,10.63-.12,10.72-.12A.11.11,0,0,1,51,53.59Z"/><path class="cls-32" d="M34.46,47.82c0,.09-.07.19-.11.28a5.15,5.15,0,0,0-3.65,4.34,21,21,0,0,0,.05,5.2c.17,1.58.29,2.62-.44,3.1a3.31,3.31,0,0,1-1.67.57,1.69,1.69,0,0,1-.72-.15c-.79-.37-1.3-1.37-1.5-3-.37-2.94,0-5.66.83-6.77a1.28,1.28,0,0,1,.84-.53.11.11,0,0,1,.12.1.11.11,0,0,1-.1.13,1.05,1.05,0,0,0-.68.45c-.83,1.06-1.14,3.71-.78,6.59.19,1.53.65,2.47,1.37,2.8a2.38,2.38,0,0,0,2.16-.41c.61-.4.51-1.38.34-2.88a21.37,21.37,0,0,1-.05-5.25A5.42,5.42,0,0,1,34.46,47.82Z"/><path class="cls-5" d="M27.1,44.32h0A1.08,1.08,0,0,1,26,43.24h0a1.09,1.09,0,0,1,1.09-1.09h0a1.08,1.08,0,0,1,1.08,1.09h0A1.08,1.08,0,0,1,27.1,44.32Z"/><path class="cls-5" d="M27.46,44.94h-.72a.22.22,0,0,1-.22-.22h0a.22.22,0,0,1,.22-.22h.72a.21.21,0,0,1,.21.22h0A.21.21,0,0,1,27.46,44.94Z"/><path class="cls-5" d="M27.46,45.56h-.72a.22.22,0,0,1-.22-.22h0a.22.22,0,0,1,.22-.22h.72a.21.21,0,0,1,.21.22h0A.21.21,0,0,1,27.46,45.56Z"/><path class="cls-7" d="M28.47,46.29H25.72a.22.22,0,0,1-.22-.22h0a.22.22,0,0,1,.22-.22h2.75a.22.22,0,0,1,.22.22h0A.22.22,0,0,1,28.47,46.29Z"/><path class="cls-7" d="M28.47,47.33H25.72a.22.22,0,0,1-.22-.22h0a.22.22,0,0,1,.22-.22h2.75a.22.22,0,0,1,.22.22h0A.22.22,0,0,1,28.47,47.33Z"/><path class="cls-7" d="M28.47,48.37H25.72a.22.22,0,0,1-.22-.22h0a.22.22,0,0,1,.22-.22h2.75a.22.22,0,0,1,.22.22h0A.22.22,0,0,1,28.47,48.37Z"/><path class="cls-7" d="M28.47,49.41H25.72a.22.22,0,0,1-.22-.22h0a.22.22,0,0,1,.22-.22h2.75a.22.22,0,0,1,.22.22h0A.22.22,0,0,1,28.47,49.41Z"/><path class="cls-5" d="M26,50.11a.22.22,0,1,1-.43,0,.21.21,0,0,1,.22-.21A.21.21,0,0,1,26,50.11Z"/><path class="cls-5" d="M26.82,50.11a.21.21,0,0,1-.21.22.22.22,0,0,1-.22-.22.21.21,0,0,1,.22-.21A.21.21,0,0,1,26.82,50.11Z"/><path class="cls-5" d="M27.62,50.11a.22.22,0,0,1-.22.22.21.21,0,0,1-.21-.22.21.21,0,0,1,.21-.21A.21.21,0,0,1,27.62,50.11Z"/><path class="cls-5" d="M28.41,50.11a.22.22,0,1,1-.43,0,.21.21,0,0,1,.21-.21A.21.21,0,0,1,28.41,50.11Z"/><rect class="cls-33" x="35.92" y="35.93" width="12.07" height="13.06" rx="2.41" ry="2.41"/><rect class="cls-14" x="35.34" y="35.93" width="12.07" height="13.06" rx="0.43" ry="0.43"/><path class="cls-7" d="M45.35,38.61V49H35.77a.43.43,0,0,1-.43-.43V38.18h9.57A.44.44,0,0,1,45.35,38.61Z"/><path class="cls-7" d="M39.81,43.87A3.2,3.2,0,0,1,39,46.35a.68.68,0,0,1-.41.14.73.73,0,0,1-.39-.13,3.18,3.18,0,0,1-.86-2.49c0-1.45.56-2.62,1.25-2.62S39.81,42.42,39.81,43.87Z"/><path class="cls-4" d="M39.42,44a1.89,1.89,0,0,1-.5,1.46.41.41,0,0,1-.24.08.39.39,0,0,1-.23-.07A1.89,1.89,0,0,1,37.94,44c0-.85.33-1.54.74-1.54S39.42,43.15,39.42,44Z"/><path class="cls-9" d="M39.21,44a1.89,1.89,0,0,1-.5,1.46.41.41,0,0,1-.24.08.39.39,0,0,1-.23-.07A1.85,1.85,0,0,1,37.73,44c0-.85.33-1.54.74-1.54S39.21,43.15,39.21,44Z"/><path class="cls-4" d="M40.52,54H32.63s.15-.78.44-1.93c.06-.25.13-.51.2-.79.23-.81.52-1.74.87-2.66,0-.12.09-.24.13-.35h0c0-.07,0-.13.08-.19s.07-.19.11-.28A10.38,10.38,0,0,1,37,43.92a3.46,3.46,0,0,1,.46-.32,3,3,0,0,1,.85-.35c.7-.16.52,1.43.32,1.74A22.13,22.13,0,0,0,37,47.56l-.12.24A6.2,6.2,0,0,0,35.92,52s0,.08.12.13c.6.38,3.13.92,4.1,1.51a1.14,1.14,0,0,1,.28.22A.38.38,0,0,1,40.52,54Z"/><path class="cls-7" d="M38.64,45c-.21.32-3.43,4.31-2.72,7,0,0,0,.08.12.13-.47-.17-.92-.47-.85-1,.05-3.54,2.91-6.24,2.69-6.91a1.05,1.05,0,0,0-.41-.57,3,3,0,0,1,.85-.35C39,43.09,38.84,44.68,38.64,45Z"/><path class="cls-7" d="M38.07,54H32.63s.15-.78.44-1.93c.33,1,1.22,1.4,2.53,1.5A11.61,11.61,0,0,1,38.07,54Z"/><path class="cls-18" d="M36.23,45.86c-1.65,1.7-2,5-2.36,5.38a.47.47,0,0,1-.6.06c.68-2.44,1.91-5.88,3.74-7.38C37.18,44.36,37,45,36.23,45.86Z"/><rect class="cls-4" x="37.16" y="47.36" width="0.58" height="0.58" rx="0.29" ry="0.29"/><rect class="cls-4" x="40.1" y="47.36" width="0.58" height="0.58" rx="0.29" ry="0.29"/><rect class="cls-4" x="40.98" y="47.36" width="0.58" height="0.58" rx="0.29" ry="0.29"/><rect class="cls-4" x="41.87" y="47.36" width="0.58" height="0.58" rx="0.29" ry="0.29"/><rect class="cls-4" x="37.42" y="39.29" width="2.64" height="0.87"/></g></g></svg>