<svg xmlns="http://www.w3.org/2000/svg" width="97.26" height="38.33" viewBox="0 0 97.26 38.33"><defs><style>.cls-1{fill:#fff;}</style></defs><title>horizontal RIVEX logo</title><g id="Layer_2" data-name="Layer 2"><g id="Layer_9" data-name="Layer 9"><line class="cls-1" x1="5.5" y1="12.64" x2="5.5" y2="12.64"/><path class="cls-1" d="M12.82,23.14l-.07-.09c-.61-.76-1.19-1.48-1.76-2.21Q8.11,17.2,5.24,13.53A3.38,3.38,0,0,1,5,13.07L5,13l.1,0,.21-.09a.61.61,0,0,1,.24-.06h0l7.46,0A2,2,0,0,0,14.4,12a3.77,3.77,0,0,0,.93-2.23h0a11.14,11.14,0,0,0,.1-1.41,6.7,6.7,0,0,0-.21-1.72A3.52,3.52,0,0,0,14.32,5a2.07,2.07,0,0,0-1.42-.61h0c-.69,0-1.38,0-2.07,0H3.43a.2.2,0,0,0-.1,0l0,0a.86.86,0,0,0,0,.13c0,.08,0,.2,0,.35V21.72c0,.19,0,.72,0,.91h0a.65.65,0,0,1-.06.29.31.31,0,0,1-.19.18.47.47,0,0,1-.17,0H.46A.42.42,0,0,1,.12,23,.74.74,0,0,1,0,22.61v-.87H0c0-1.61.06-3.22.08-4.84h0c0-.31-.07-.63-.07-1C0,13.46,0,11,0,8.53V1.14A2.61,2.61,0,0,1,.06.41.34.34,0,0,1,.15.27.4.4,0,0,1,.35.18a2.06,2.06,0,0,1,.38,0H7.44c1.79,0,3.59,0,5.38,0a5,5,0,0,1,2.63.76A6.11,6.11,0,0,1,17.5,3.26a10.15,10.15,0,0,1,1.08,3.92c0,.43.06.85.06,1.27a13.54,13.54,0,0,1-.18,2.21,8.57,8.57,0,0,1-1.23,3.39,5.14,5.14,0,0,1-2.43,2,11.21,11.21,0,0,1-2.25.5h0a.82.82,0,0,1-.22,0h-.14c.51.7,1,1.4,1.51,2.08.35.48.73.94,1.08,1.43l2.7,3.05Z" transform="translate(0 -0.15)"/><polygon class="cls-1" points="5.24 13.38 5.24 13.38 5.24 13.38 5.24 13.38"/><path class="cls-1" d="M97.09.51v0h0l.06.06-.08,0a.17.17,0,0,1,0,0l0,0Z" transform="translate(0 -0.15)"/><path class="cls-1" d="M97.11.42V.49H97v0Z" transform="translate(0 -0.15)"/><path class="cls-1" d="M97.08.5h0v0Z" transform="translate(0 -0.15)"/><path class="cls-1" d="M97.08.5l0,0,0,0Z" transform="translate(0 -0.15)"/><path class="cls-1" d="M96.45,22.88l-.07.06,0-.05,0-.05Z" transform="translate(0 -0.15)"/><path class="cls-1" d="M96.29,23a.08.08,0,0,0,0,0h0V23Z" transform="translate(0 -0.15)"/><path class="cls-1" d="M85.67,12l.06.06-.06.06-.07-.06Z" transform="translate(0 -0.15)"/><path class="cls-1" d="M70.51,22.61,83.87,9.27c2.3-2.3,6.19-6.21,8.49-8.5A1.08,1.08,0,0,1,93,.45c.58,0,1.16,0,1.74,0h2A1.28,1.28,0,0,1,97,.5l0,0C93.77,3.81,88.88,8.67,85.54,12l-.06.06.06.06L96.33,22.89l0,0L96,23H93.91c-.66,0-1.32,0-2,0a1,1,0,0,1-.65-.27q-4-4-7.91-8l-.16-.12a.3.3,0,0,0-.16-.05.27.27,0,0,0-.17.06.58.58,0,0,0-.15.13l-7.68,7.85a1.43,1.43,0,0,1-.41.31,1.1,1.1,0,0,1-.49.11H70.72l-.45,0A1.77,1.77,0,0,1,70.51,22.61Z" transform="translate(0 -0.15)"/><path class="cls-1" d="M70.72,23.14l-.54,0v0l.08-.13.45,0h3.44a1.1,1.1,0,0,0,.49-.11,1.43,1.43,0,0,0,.41-.31l7.68-7.85a.58.58,0,0,1,.15-.13.27.27,0,0,1,.17-.06.3.3,0,0,1,.16.05l.16.12q3.93,4,7.91,8a1,1,0,0,0,.65.27c.65,0,1.31,0,2,0H96l.34,0a.08.08,0,0,1,0,0l.08,0v-.08h0l0,0,0,.05.07-.06-.08,0,0,.05L85.54,12.14l.06-.06.07.06.06-.06L96.51,22.82l0,0,0,.06s0,.09-.07.14l0,0h-.05c-.13,0-.26,0-.41,0H93.91l-2,0a1.17,1.17,0,0,1-.76-.33c-2.66-2.65-5.29-5.31-7.92-8l-.12-.1-.07,0-.08,0-.12.11c-2.55,2.62-5.12,5.23-7.67,7.85a1.69,1.69,0,0,1-.47.35,1.25,1.25,0,0,1-.56.12H70.72Z" transform="translate(0 -0.15)"/><path class="cls-1" d="M70.27,22.94l-.08.13L70.11,23v-.08Z" transform="translate(0 -0.15)"/><path class="cls-1" d="M70,23a3.63,3.63,0,0,1,.34-.47L83.75,9.14,92.23.65A1.28,1.28,0,0,1,93,.27l1.75,0h2a2.33,2.33,0,0,1,.41.07h0l0,0,0,.12,0,.06,0,0L85.73,12.08,85.67,12l-.07.06-.06.06-.06-.06.06-.06C88.88,8.67,93.77,3.81,97.06.53a.17.17,0,0,0,0,0l.08,0L97.1.49h0V.42L97,.45v0a1.28,1.28,0,0,0-.32-.06h-2c-.58,0-1.16,0-1.74,0a1.08,1.08,0,0,0-.67.32c-2.3,2.29-6.19,6.2-8.49,8.5L70.51,22.61a1.77,1.77,0,0,0-.24.33h-.15V23l.08.06v0H70Z" transform="translate(0 -0.15)"/><polygon class="cls-1" points="22.42 0.16 22.42 1.19 22.42 23 25.47 23 25.47 0.16 22.42 0.16"/><polygon class="cls-1" points="82.86 7.92 74.96 0.01 69.72 0.01 80.32 10.61 82.93 7.98 82.86 7.92"/><path class="cls-1" d="M47.3.42H47l-.11.27L43.26,9.23h0c-1.14,2.66-2.27,5.33-3.41,8l-3.39-8C35.24,6.38,34,3.5,32.77.59L32.65.31h-.3l-2,.1-.57,0L29.9,1c.05.14.11.33.21.57.35.92,1.08,2.64,2,4.72,1.36,3.13,3.12,7.08,4.6,10.31.74,1.61,1.4,3.05,1.92,4.12.25.53.47,1,.64,1.3.08.17.16.3.22.41l.08.14.09.13.46.53.28-.64L49.85,1l.28-.62H47.3Z" transform="translate(0 -0.15)"/><path class="cls-1" d="M64,20.58c-1-.07-2.51-.09-4.13-.09s-3,0-4.27.06c-.62,0-1.16.05-1.58.08l-.54.06a.66.66,0,0,0-.21,0l-.18,0-.3.11v2.34H65.12V20.72l-.38-.07C64.55,20.62,64.29,20.6,64,20.58Z" transform="translate(0 -0.15)"/><path class="cls-1" d="M64.81,10.62l-.35-.06-.93-.07c-1.14-.05-2.87-.08-4.6-.08-1.31,0-2.62,0-3.67.05-.52,0-1,0-1.35.06l-.47,0a2.52,2.52,0,0,0-.35.06l-.33.09v2.37H65.15V10.71Z" transform="translate(0 -0.15)"/><path class="cls-1" d="M39,13.38l.46.66.31-.74L45,1,45.28.4H42.56l-.11.27c-1.34,3.14-2.59,6.23-4,9.25a3.12,3.12,0,0,0-.32,1.32,2.77,2.77,0,0,0,.23,1.09A5.81,5.81,0,0,0,39,13.38Z" transform="translate(0 -0.15)"/><path class="cls-1" d="M52.77,3H65.14V.42H52.77V3Z" transform="translate(0 -0.15)"/><path class="cls-1" d="M0,38.42V34.15H1a1.24,1.24,0,0,1,.69.2,1,1,0,0,1,.38.53,1.53,1.53,0,0,1,.06.45,1,1,0,0,1-.23.69.72.72,0,0,1-.22.17.73.73,0,0,1,.36.32,1.37,1.37,0,0,1,.15.42,2.66,2.66,0,0,1,0,.3,1.47,1.47,0,0,1-.15.69,1,1,0,0,1-.34.35.93.93,0,0,1-.49.15ZM.69,35.9H1a.41.41,0,0,0,.41-.3,1,1,0,0,0,0-.27.55.55,0,0,0-.13-.4A.42.42,0,0,0,1,34.8H.69Zm0,1.89H1a.48.48,0,0,0,.46-.34.77.77,0,0,0,0-.27.75.75,0,0,0-.14-.52A.43.43,0,0,0,1,36.51H.69Z" transform="translate(0 -0.15)"/><path class="cls-1" d="M4.4,37.44l-.16,1H3.57l.73-4.27h.89l.71,4.27H5.23l-.16-1Zm.34-2.31L4.5,36.81H5Z" transform="translate(0 -0.15)"/><path class="cls-1" d="M8.13,37.44l-.16,1H7.3L8,34.15h.89l.71,4.27H9l-.16-1Zm.34-2.31-.24,1.68h.48Z" transform="translate(0 -0.15)"/><path class="cls-1" d="M13.07,37.36a1.25,1.25,0,0,1-.23.77.9.9,0,0,1-.45.3,1.25,1.25,0,0,1-.36,0,1,1,0,0,1-.62-.19,1,1,0,0,1-.33-.42,1.61,1.61,0,0,1-.14-.61l.61,0a.9.9,0,0,0,.2.54.35.35,0,0,0,.26.12.4.4,0,0,0,.34-.21.52.52,0,0,0,.07-.28.78.78,0,0,0-.24-.53l-.58-.54a2.49,2.49,0,0,1-.45-.56,1.21,1.21,0,0,1-.14-.6,1,1,0,0,1,.39-.88,1,1,0,0,1,.6-.18,1.13,1.13,0,0,1,.59.15.83.83,0,0,1,.3.34,1.23,1.23,0,0,1,.15.49l-.62.11a.73.73,0,0,0-.15-.4.3.3,0,0,0-.26-.11.32.32,0,0,0-.27.15.63.63,0,0,0-.07.32,1,1,0,0,0,.25.6c.07.07.16.16.29.27l.3.26a2.36,2.36,0,0,1,.36.47,1.24,1.24,0,0,1,.1.2A1.43,1.43,0,0,1,13.07,37.36Z" transform="translate(0 -0.15)"/><path class="cls-1" d="M14.47,37.78h.64v.65h-.64Z" transform="translate(0 -0.15)"/><path class="cls-1" d="M17.92,38.42V34.15h1.83v.64H18.56V36h.87v.64h-.87v1.17h1.19v.64Z" transform="translate(0 -0.15)"/><path class="cls-1" d="M21.88,34.15,22.73,37V34.15h.65v4.27h-.69l-.89-2.73v2.73h-.65V34.15Z" transform="translate(0 -0.15)"/><path class="cls-1" d="M25.54,34.79h-.69v-.64h2v.64h-.68v3.63h-.64Z" transform="translate(0 -0.15)"/><path class="cls-1" d="M28.34,38.42V34.15h1.83v.64H29V36h.87v.64H29v1.17h1.19v.64Z" transform="translate(0 -0.15)"/><path class="cls-1" d="M32.59,34.15a1,1,0,0,1,.79.3,1.05,1.05,0,0,1,.22.72v.62a1,1,0,0,1-.34.77l.48,1.86H33l-.39-1.61h-.43v1.61h-.64V34.15Zm.38,1a.32.32,0,0,0-.36-.37h-.39v1.36h.39a.35.35,0,0,0,.26-.1.38.38,0,0,0,.1-.27Z" transform="translate(0 -0.15)"/><path class="cls-1" d="M36.26,34.15a1,1,0,0,1,.75.3,1,1,0,0,1,.26.72v.62a1,1,0,0,1-.29.72,1,1,0,0,1-.72.3h-.37v1.61h-.64V34.15Zm.39,1a.41.41,0,0,0-.1-.27.36.36,0,0,0-.27-.1h-.39v1.36h.39a.35.35,0,0,0,.26-.1.39.39,0,0,0,.11-.27Z" transform="translate(0 -0.15)"/><path class="cls-1" d="M39.76,34.15a1,1,0,0,1,.79.3,1.05,1.05,0,0,1,.22.72v.62a1,1,0,0,1-.34.77l.48,1.86h-.7l-.39-1.61h-.43v1.61h-.64V34.15Zm.38,1a.32.32,0,0,0-.36-.37h-.39v1.36h.39a.35.35,0,0,0,.26-.1.38.38,0,0,0,.1-.27Z" transform="translate(0 -0.15)"/><path class="cls-1" d="M43.06,38.42h-.64V34.15h.64Z" transform="translate(0 -0.15)"/><path class="cls-1" d="M46.69,37.36a1.25,1.25,0,0,1-.23.77.87.87,0,0,1-.44.3,1.36,1.36,0,0,1-.36,0,1,1,0,0,1-.63-.19,1,1,0,0,1-.33-.42,1.61,1.61,0,0,1-.14-.61l.61,0a1,1,0,0,0,.2.54.37.37,0,0,0,.27.12.39.39,0,0,0,.33-.21.45.45,0,0,0,.07-.28.78.78,0,0,0-.24-.53l-.58-.54a2.49,2.49,0,0,1-.45-.56,1.33,1.33,0,0,1-.14-.6,1,1,0,0,1,.39-.88,1,1,0,0,1,.6-.18,1.1,1.1,0,0,1,.59.15.85.85,0,0,1,.31.34,1.22,1.22,0,0,1,.14.49l-.62.11a.73.73,0,0,0-.15-.4.28.28,0,0,0-.25-.11.29.29,0,0,0-.27.15.63.63,0,0,0-.08.32,1,1,0,0,0,.25.6c.07.07.16.16.29.27l.3.26a2.44,2.44,0,0,1,.37.47,1.13,1.13,0,0,1,.09.2A1,1,0,0,1,46.69,37.36Z" transform="translate(0 -0.15)"/><path class="cls-1" d="M48.18,38.42V34.15H50v.64H48.83V36h.87v.64h-.87v1.17H50v.64Z" transform="translate(0 -0.15)"/><path class="cls-1" d="M55,37.36a1.19,1.19,0,0,1-.23.77.83.83,0,0,1-.44.3,1.36,1.36,0,0,1-.36,0,1.07,1.07,0,0,1-.63-.19,1,1,0,0,1-.33-.42,1.61,1.61,0,0,1-.14-.61l.61,0a1,1,0,0,0,.2.54.37.37,0,0,0,.27.12.39.39,0,0,0,.33-.21.45.45,0,0,0,.07-.28.78.78,0,0,0-.24-.53l-.57-.54a2.31,2.31,0,0,1-.46-.56,1.33,1.33,0,0,1-.14-.6,1,1,0,0,1,.39-.88,1,1,0,0,1,.6-.18,1.1,1.1,0,0,1,.59.15.85.85,0,0,1,.31.34,1.22,1.22,0,0,1,.14.49l-.62.11a.61.61,0,0,0-.15-.4.28.28,0,0,0-.25-.11.29.29,0,0,0-.27.15.63.63,0,0,0-.08.32,1,1,0,0,0,.26.6,3.85,3.85,0,0,0,.28.27,4,4,0,0,1,.3.26,2.44,2.44,0,0,1,.37.47l.1.2A1.13,1.13,0,0,1,55,37.36Z" transform="translate(0 -0.15)"/><path class="cls-1" d="M57.45,34.1a1,1,0,0,1,1,1v2.33a1,1,0,0,1-.3.73,1,1,0,0,1-.73.3,1,1,0,0,1-1-1V35.12a1,1,0,0,1,.3-.72A1,1,0,0,1,57.45,34.1Zm.35,1a.35.35,0,0,0-.1-.26.36.36,0,0,0-.26-.11.39.39,0,0,0-.27.11.35.35,0,0,0-.1.26v2.34a.35.35,0,0,0,.1.26.39.39,0,0,0,.27.11.36.36,0,0,0,.26-.11.35.35,0,0,0,.1-.26Z" transform="translate(0 -0.15)"/><path class="cls-1" d="M61.76,38.42H60V34.15h.65v3.63h1.11Z" transform="translate(0 -0.15)"/><path class="cls-1" d="M64.18,38.48a1,1,0,0,1-1-1V34.15h.63v3.31a.38.38,0,0,0,.11.26.39.39,0,0,0,.52,0,.38.38,0,0,0,.11-.26V34.15h.67v3.31a1,1,0,0,1-.3.72A1,1,0,0,1,64.18,38.48Z" transform="translate(0 -0.15)"/><path class="cls-1" d="M67.36,34.79h-.68v-.64h2v.64H68v3.63h-.64Z" transform="translate(0 -0.15)"/><path class="cls-1" d="M70.81,38.42h-.65V34.15h.65Z" transform="translate(0 -0.15)"/><path class="cls-1" d="M73.35,34.1a1,1,0,0,1,1,1v2.33a1,1,0,1,1-2,0V35.12a1,1,0,0,1,.3-.72A1,1,0,0,1,73.35,34.1Zm.35,1a.35.35,0,0,0-.1-.26.36.36,0,0,0-.26-.11.35.35,0,0,0-.26.11.33.33,0,0,0-.11.26v2.34a.33.33,0,0,0,.11.26.35.35,0,0,0,.26.11.36.36,0,0,0,.26-.11.35.35,0,0,0,.1-.26Z" transform="translate(0 -0.15)"/><path class="cls-1" d="M76.62,34.15,77.48,37V34.15h.64v4.27h-.69l-.89-2.73v2.73H75.9V34.15Z" transform="translate(0 -0.15)"/><path class="cls-1" d="M81.75,37.36a1.25,1.25,0,0,1-.23.77.9.9,0,0,1-.45.3,1.23,1.23,0,0,1-.35,0,1,1,0,0,1-.63-.19,1,1,0,0,1-.33-.42,1.61,1.61,0,0,1-.14-.61l.61,0a1,1,0,0,0,.2.54.35.35,0,0,0,.26.12.4.4,0,0,0,.34-.21.45.45,0,0,0,.07-.28.78.78,0,0,0-.24-.53l-.58-.54a2.49,2.49,0,0,1-.45-.56,1.21,1.21,0,0,1-.14-.6,1,1,0,0,1,.39-.88,1,1,0,0,1,.6-.18,1.13,1.13,0,0,1,.59.15.83.83,0,0,1,.3.34,1.23,1.23,0,0,1,.15.49l-.62.11a.73.73,0,0,0-.15-.4.29.29,0,0,0-.26-.11.32.32,0,0,0-.27.15.63.63,0,0,0-.07.32,1,1,0,0,0,.25.6c.07.07.16.16.29.27a4,4,0,0,1,.3.26,2.36,2.36,0,0,1,.36.47,1.24,1.24,0,0,1,.1.2A1.16,1.16,0,0,1,81.75,37.36Z" transform="translate(0 -0.15)"/><path class="cls-1" d="M83.15,37.78h.64v.65h-.64Z" transform="translate(0 -0.15)"/><path class="cls-1" d="M88.62,37.4a1,1,0,0,1-.29.72,1,1,0,0,1-.72.3h-1V34.15h1a1,1,0,0,1,.72.3,1,1,0,0,1,.29.72Zm-1.38.39h.39a.34.34,0,0,0,.26-.12.36.36,0,0,0,.11-.26V35.18a.36.36,0,0,0-.11-.26.33.33,0,0,0-.26-.11h-.39Z" transform="translate(0 -0.15)"/><path class="cls-1" d="M90.15,38.42V34.15H92v.64H90.79V36h.87v.64h-.87v1.17H92v.64Z" transform="translate(0 -0.15)"/><path class="cls-1" d="M94,38.42h-.65V34.15h1.84v.64H94V36h.87v.64H94Z" transform="translate(0 -0.15)"/><path class="cls-1" d="M97.26,38.42h-.64V34.15h.64Z" transform="translate(0 -0.15)"/></g></g></svg>