<svg xmlns="http://www.w3.org/2000/svg" width="97.42" height="83.27" viewBox="0 0 97.42 83.27"><defs><style>.cls-1{opacity:0.02;}.cls-2{fill:#fff;}</style></defs><title>vertical RIVEX logo</title><g id="Layer_2" data-name="Layer 2"><g id="Layer_8" data-name="Layer 8"><g class="cls-1"><path class="cls-2" d="M40.62,42c1.83,1.92,3.62,3.84,5.45,5.73,1.2,1.23,2.48,2.38,3.66,3.64.23.25.37,1,.21,1.17-2.13,2.05-4.32,4-6.58,6.11-2-2-4-3.79-5.92-5.64q-9.7-9.34-19.37-18.69a6.51,6.51,0,0,1-.77-1.14,5.63,5.63,0,0,1,1.41-.36c8.38,0,16.76,0,25.14-.09a8.14,8.14,0,0,0,5.07-1.94,9.05,9.05,0,0,0,3.23-5.85,16.16,16.16,0,0,0-.41-8.08A8.54,8.54,0,0,0,43.64,11c-4-.09-8.1,0-12.15,0h-19c-1.54,0-1.63.09-1.63,1.64q0,21.42,0,42.83c0,.48,0,1,0,1.45,0,.75-.36,1.07-1.12,1.06q-4,0-7.94,0A1.08,1.08,0,0,1,.53,56.75a11.64,11.64,0,0,1,0-1.32c.08-4.12.19-8.25.24-12.37,0-.83-.23-1.66-.24-2.5q0-18.89,0-37.77C.48.57.55.51,2.8.51c13.51,0,27-.09,40.54.06C49.65.65,55.08,3,58.87,8.32a21.44,21.44,0,0,1,3.59,9.93,25.55,25.55,0,0,1-.4,8.82c-1.46,6.78-5.39,11.56-12.13,13.62A50.92,50.92,0,0,1,42.39,42,10.56,10.56,0,0,1,40.62,42Z"/><path class="cls-2" d="M66.26,52.84,96.93,82.28l-.2.37a11.07,11.07,0,0,1-1.13.11c-3.81,0-7.62,0-11.43,0a3.21,3.21,0,0,1-2-.81Q70.92,71.08,59.78,60.13c-.61-.59-.92-.49-1.45,0Q47.47,70.88,36.61,81.58a3.63,3.63,0,0,1-2.84,1.21c-3.21-.08-6.42,0-9.63,0-.47,0-.93-.06-1.71-.11a10,10,0,0,1,.94-1.27Q42.27,63.19,61.19,45c6.49-6.25,12.92-12.57,19.41-18.81a3.43,3.43,0,0,1,2.07-1c3.49-.09,7-.05,10.46,0a6.72,6.72,0,0,1,1.09.19l.15.35Z"/><polygon class="cls-2" points="0 60.27 0 83.27 19.22 83.27 19.22 82.31 0.96 82.31 0.96 60.27 0 60.27 0 60.27"/><polygon class="cls-2" points="62.67 0.96 96.45 0.96 96.45 74.26 97.42 74.26 97.42 0 62.67 0 62.67 0.96 62.67 0.96"/></g></g></g></svg>